<svg width="24" height="24" viewBox="0 0 24 24" fill="none" xmlns="http://www.w3.org/2000/svg">
<path opacity="0.6" d="M12 0C5.38338 0 0 5.38292 0 12C0 18.6171 5.38338 24 12 24C18.6166 24 24 18.6171 24 12C24 5.38292 18.6166 0 12 0ZM12 23.0769C5.89246 23.0769 0.923077 18.1075 0.923077 12C0.923077 5.89246 5.89246 0.923077 12 0.923077C18.1075 0.923077 23.0769 5.89246 23.0769 12C23.0769 18.1075 18.1075 23.0769 12 23.0769Z" fill="#939DFF"/>
<path fill-rule="evenodd" clip-rule="evenodd" d="M11.4148 8.23268C11.4148 7.90313 11.6819 7.63672 12.0108 7.63672C12.3396 7.63672 12.6067 7.90313 12.6067 8.23268V11.5155H16.0512C16.38 11.5155 16.6471 11.7819 16.6471 12.1115C16.6471 12.441 16.38 12.7074 16.0512 12.7074H12.6067V16.3135C12.6067 16.643 12.3396 16.9094 12.0108 16.9094C11.6819 16.9094 11.4148 16.643 11.4148 16.3135V12.7074H7.97035C7.64148 12.7074 7.37439 12.441 7.37439 12.1115C7.37439 11.7819 7.64148 11.5155 7.97035 11.5155H11.4148V8.23268Z" fill="#6F7DFF"/>
</svg>
