<svg xmlns="http://www.w3.org/2000/svg" width="48" height="48" viewBox="0 0 48 48" fill="none">
<path d="M40.5605 38.4177L16.873 44.7562C13.6888 45.6192 10.4154 43.7444 9.55246 40.5603L3.21396 16.8727C2.35097 13.6886 4.2555 10.4152 7.43962 9.55221L31.1272 3.21371C34.3113 2.35073 37.5847 4.25525 38.4477 7.43938L44.7862 31.1269C45.6194 34.311 43.7446 37.5845 40.5605 38.4177Z" fill="#0e27c9"/>
<path d="M41.3043 15.325L39.8759 16.6641C39.8759 16.6641 31.9007 11.6945 31.6328 11.516C31.365 11.3672 29.1332 15.1762 28.7165 15.4143L4.16602 29.5792L23.4196 33.1799L41.6911 23.3597C42.3756 22.9431 41.3043 15.325 41.3043 15.325Z" fill="#141938"/>
<path d="M26.2763 15.8906L25.0563 15.474C24.7884 15.3847 24.5206 15.2061 24.3421 14.9978L23.8957 14.4622C23.6576 14.1646 23.1815 14.1944 22.9732 14.5514L22.5566 15.2656C22.4673 15.4144 22.4078 15.593 22.4078 15.8013V17.5273L21.1282 19.164L17.0513 21.5149C16.9025 21.6041 16.8132 21.7529 16.8132 21.9315V22.4969C16.8132 22.6754 16.9025 22.8242 17.0513 22.9135L20.8306 25.0859C21.0091 25.2049 21.2472 25.2049 21.4258 25.0859L25.7407 22.6457C25.8597 22.5862 25.9192 22.4671 25.9192 22.3183V21.9315L27.2881 17.9439C27.5559 17.1107 27.1096 16.1882 26.2763 15.8906Z" fill="#545D94"/>
<path d="M32.3173 20.3247L31.0972 19.908C30.8294 19.8188 30.5615 19.6402 30.383 19.4319L29.9366 18.8963C29.6985 18.5987 29.2224 18.6284 29.0141 18.9855L28.7463 19.4617C28.5677 19.789 28.4487 20.1461 28.4487 20.5032V22.497C28.4487 22.7053 28.3297 22.9136 28.1511 23.0326L27.1989 23.5981L23.122 25.949C22.9732 26.0382 22.8839 26.187 22.8839 26.3656V26.931C22.8839 27.1095 22.9732 27.2583 23.122 27.3476L26.9013 29.5199C27.0798 29.639 27.3179 29.639 27.4964 29.5199L31.8114 27.0798C31.9304 27.0202 31.9899 26.9012 31.9899 26.7524V26.3656L33.3588 22.378C33.6266 21.515 33.1803 20.6222 32.3173 20.3247Z" fill="#545D94"/>
<path d="M14.9979 16.7236L14.1945 20.4732L17.2 18.5984L17.3191 20.2053L19.8188 20.8898L18.0333 22.1694L19.0451 25.175L10.8318 20.8898L12.2304 18.7472L14.9979 16.7236Z" fill="#FFCA61"/>
<path d="M22.9435 18.0928L21.1877 20.0568L23.6874 19.9378L23.5982 20.89L25.2051 21.1876L25.6217 19.2533L22.9435 18.0928Z" fill="#FFCA61"/>
<path d="M5.38624 26.1572C5.29697 26.3655 4.88035 26.1275 4.52325 27.5856C3.95785 28.1213 3.7793 28.9247 3.7793 29.3414V32.2874C3.7793 32.9123 3.9876 33.4777 4.40422 33.9539C4.58277 34.1622 5.47552 33.6861 5.74334 33.8348C8.06448 35.174 10.5642 36.3941 10.5642 36.3941C11.9033 37.1678 12.6175 38.3581 14.1649 38.3581L14.5815 37.5546L16.5753 29.1628L5.38624 26.1572Z" fill="#85ffa4"/>
<path d="M39.876 12.3195L30.77 7.11184C29.8772 6.60595 28.7464 6.60595 27.8537 7.11184L19.6702 12.7957C19.2238 13.0932 18.7179 13.3015 18.1823 13.3908L16.5456 13.6289L15.9802 14.0455C15.7123 14.2538 15.4743 14.5216 15.3255 14.849L14.6708 16.2774L11.7545 18.7473L10.832 20.2352L6.13019 23.8657C5.86236 24.074 6.21946 24.7287 6.07067 24.9965C5.83261 25.3834 5.17792 25.7107 5.17792 26.1869L5.11841 26.6332C5.11841 26.9308 6.21946 27.7938 6.57656 27.0796C6.81463 26.6035 9.90948 27.7045 10.3559 27.9723L11.695 29.5495C12.4687 29.9959 11.1891 31.7219 12.0818 31.6028L15.5933 31.335C16.248 31.2755 17.4086 31.6921 17.974 31.3648C20.2356 30.1447 23.0329 27.3177 23.2114 27.3772L26.0682 19.64C30.5617 15.831 35.3825 15.1168 39.876 12.3195ZM24.8779 20.265L22.6162 25.919C22.4674 26.2761 22.1401 26.5142 21.7533 26.5142L11.5462 20.6518C11.4867 20.384 11.5462 20.0864 11.7545 19.8484L12.2306 18.9854L14.9981 16.7237L15.8314 15.0275C16.0694 14.7597 16.4563 14.7299 16.7241 14.968C17.111 15.3251 17.1407 16.2476 17.8549 16.7833C18.3608 17.1404 19.5214 17.1106 20.0868 17.4082C21.5152 18.2117 23.5387 19.0746 24.5505 19.4615C24.8481 19.5805 24.9969 19.9376 24.8779 20.265Z" fill="#cffac8"/>
<path d="M42.078 13.9263C41.6912 13.3906 41.1555 13.0038 40.5901 12.6764L39.8759 12.3193L38.4773 13.1823C42.2268 17.4377 36.2157 25.8296 35.5312 26.2164L33.4482 27.3175C33.8053 26.9306 34.0136 26.4545 34.0136 25.9188L34.1326 20.6219C34.1326 20.2053 34.1028 19.7886 34.0136 19.372L33.1506 15.5035C33.0315 14.9976 32.4661 14.7298 31.99 14.9976L27.7643 17.4377C26.8716 17.9436 26.1872 18.7769 25.8598 19.7291L24.4909 23.6572C24.3719 23.9846 24.2529 24.3119 24.0743 24.6095C23.9553 24.8475 23.866 25.1154 23.8065 25.3832C23.1221 26.8116 22.021 27.9722 20.6521 28.7756L17.6763 30.4718C16.9324 30.8885 16.0991 31.186 15.2659 31.2753C15.2659 31.2753 13.778 31.8705 12.5281 33.0608L11.7842 35.8283C11.7842 37.1972 12.8852 38.2983 14.2541 38.2983L16.9324 36.8401C17.349 36.2747 17.7953 33.656 20.5629 33.1501L24.6397 34.1619L34.579 28.4185L40.5306 24.2524C41.5424 23.6572 42.9113 23.0025 43.1196 21.842C43.1791 21.6039 43.2089 21.3361 43.2089 21.098V17.2294C43.2089 16.0986 42.822 14.9083 42.078 13.9263ZM25.7408 24.1631L26.8121 20.5028C27.1394 19.4315 27.8536 18.509 28.8356 17.9436L32.4661 15.8308L33.2399 19.2232C33.3589 19.7886 33.1208 20.3541 32.6447 20.6814L26.4252 24.669C26.0681 24.8773 25.6217 24.55 25.7408 24.1631Z" fill="#a0cb8c"/>
<path d="M42.5243 21.0091C42.5243 21.0091 41.4828 20.4139 41.4233 20.4734C41.3637 20.5329 39.727 20.8305 39.727 20.8305L37.4654 22.7946L35.5311 27.9725L36.7512 27.2881L38.1796 28.0915L42.3755 23.6575L42.4648 23.2409L42.6433 22.0506L42.5243 21.0091Z" fill="#141938"/>
<path d="M40.7091 22.0205C40.4115 22.0205 40.1139 22.1098 39.8759 22.2586C38.3582 23.1216 37.3464 24.7583 37.3464 26.633C37.3464 27.5555 38.0904 28.3292 39.0427 28.3292C39.3402 28.3292 39.6378 28.24 39.9056 28.0912C41.3936 27.2282 42.4351 25.5915 42.4351 23.7167C42.4053 22.7942 41.6316 22.0205 40.7091 22.0205Z" fill="#545D94"/>
<path d="M40.3818 20.2651C39.1319 20.6519 38.1499 21.3959 37.3762 22.2589C37.1084 22.5564 36.1263 23.9848 35.9478 24.3717C35.5312 25.1752 35.2634 25.9191 35.0848 26.5738C34.7575 27.6451 34.6384 28.4783 34.6384 28.4783L35.9478 27.7344C35.9478 27.7344 37.0786 21.991 40.3818 20.9793C41.0067 20.8007 41.215 20.8305 41.5423 20.9197C41.8697 21.0388 42.316 21.2471 42.4351 21.5744C42.6731 22.1993 42.5541 23.0326 42.4053 23.6277C42.7922 23.1219 43.0302 22.5564 43.1493 21.9613C43.06 21.5149 42.9112 21.0685 42.6434 20.7114C42.4648 20.4734 41.0067 20.0568 40.3818 20.2651Z" fill="#cffac8"/>
<path d="M4.40422 29.0436L4.79108 28.8651C4.79108 27.764 5.11842 26.782 5.11842 26.782L6.57657 25.4727L5.17793 26.1571C5.08866 26.3654 4.91011 26.1273 4.52325 27.5855C3.95785 28.1211 3.7793 28.9246 3.7793 29.3412V30.3232C3.7793 31.216 3.7793 31.7814 3.7793 32.2575C3.7793 32.2575 4.07688 32.317 4.07688 32.1385C4.19591 30.9482 4.40422 29.0436 4.40422 29.0436Z" fill="#a0cb8c"/>
<path d="M13.4507 34.9656C13.3019 35.2335 14.1351 35.8286 14.1351 36.275L12.2306 36.1857L13.3019 38.2688L10.6237 37.019L11.7247 33.9836L15.8016 32.6147C15.8313 32.6147 13.5995 34.6978 13.4507 34.9656Z" fill="#85ffa4"/>
<path d="M16.6347 32.1684C15.5634 32.585 13.6291 33.1801 11.7543 32.8528L10.3855 31.3946L6.75496 31.0971L4.79092 28.8652C4.79092 28.8652 4.67189 27.8237 4.79092 26.6631C4.79092 26.6631 3.95769 29.3413 4.76116 29.9365C4.76116 30.4721 4.85044 31.0673 5.11826 31.2459C5.2373 31.3351 5.53488 31.4839 5.95149 31.6922L6.57642 32.6445L9.73079 33.6265C9.7903 33.6563 9.82006 33.686 9.87958 33.7158C10.7128 34.1324 11.3972 34.4895 11.6353 34.6383C11.9329 34.8168 12.0222 34.5788 12.0222 34.2217C12.4983 34.2217 13.3613 34.1919 14.6409 33.9538C14.9087 33.8943 15.6229 33.3884 16.7835 32.4362C16.8728 32.3171 16.7537 32.1386 16.6347 32.1684Z" fill="#141938"/>
<path d="M4.67204 32.0791L11.7545 36.156C12.2306 37.2868 12.677 37.9415 12.677 37.9415C12.1116 38.12 11.4569 37.2868 10.9808 37.138C10.5047 36.9892 5.08866 34.8169 5.08866 34.8169C4.58277 34.4598 4.13639 33.7456 4.04712 33.448C4.07688 33.0611 4.67204 32.0791 4.67204 32.0791Z" fill="#4cff1c"/>
<path d="M11.5758 20.8901C11.1295 21.4258 10.8021 22.021 10.4153 22.5864C10.0582 23.1518 9.6713 23.7469 9.28444 24.3123C8.86783 24.8777 8.45121 25.4431 7.97508 25.949C7.91556 26.0085 7.85605 26.0681 7.79653 26.1276C7.73702 26.1871 7.6775 26.2466 7.58822 26.3359C7.43943 26.4847 7.17161 26.574 6.9633 26.5144C6.75499 26.4847 6.6062 26.3359 6.48717 26.3061C6.45741 26.3061 6.45741 26.2764 6.45741 26.3061C6.42765 26.3359 6.42765 26.3656 6.42765 26.3954C6.3979 26.4847 6.3979 26.574 6.3979 26.6632C6.36814 26.574 6.33838 26.4847 6.33838 26.3954C6.33838 26.3359 6.33838 26.3061 6.36814 26.2466C6.3979 26.1871 6.48717 26.1276 6.54669 26.1276C6.75499 26.1573 6.90379 26.2169 7.05258 26.2169C7.17161 26.2169 7.26088 26.1573 7.35016 26.0383C7.37992 25.9788 7.43943 25.9193 7.46919 25.83C7.49895 25.7705 7.55847 25.6812 7.61798 25.6217C7.97508 25.0563 8.36194 24.4611 8.74879 23.8957C9.13565 23.3303 9.55227 22.7649 10.0284 22.259C10.2665 21.9912 10.5045 21.7531 10.7724 21.5151C10.9509 21.277 11.2187 21.0389 11.5758 20.8901Z" fill="#a0cb8c"/>
<path d="M20.7414 26.6035C20.2653 26.9606 19.7594 27.288 19.2237 27.5558C18.6881 27.8236 18.1524 28.0617 17.587 28.27C17.0216 28.4783 16.4562 28.6568 15.8908 28.8354L15.0576 29.0734C14.7898 29.1627 14.4922 29.252 14.2839 29.3413L14.3732 29.252C14.1351 29.6091 13.8673 29.9364 13.5994 30.2638L13.5102 30.3531L13.4209 30.3233C13.0043 30.234 12.6174 30.1447 12.2008 30.0257C12.6174 29.9662 13.034 29.9662 13.4507 29.9662L13.2721 30.0555C13.4507 29.6686 13.659 29.3115 13.8673 28.9247L13.897 28.8651L13.9565 28.8354C14.2541 28.6568 14.5219 28.5676 14.8195 28.4485C15.0874 28.3295 15.3849 28.2402 15.6528 28.1509C16.2182 27.9724 16.7836 27.7938 17.3192 27.6451L18.9857 27.1392L20.7414 26.6035Z" fill="#a0cb8c"/>
<path d="M24.1338 34.549L24.848 32.8825L23.985 30.9185H21.9019L20.3843 31.9898L18.6285 33.8348L17.6763 35.4417C17.6763 35.4417 18.3309 34.9953 19.0749 34.5787C21.3663 33.3289 24.1338 34.549 24.1338 34.549Z" fill="#141938"/>
<path d="M22.2591 33.6263C21.9317 33.4477 21.4853 33.5965 21.1282 33.9536L19.2535 32.8525L18.5095 34.1917L20.4438 35.3225C20.3843 35.7688 20.4736 36.1259 20.7711 36.3045L21.1282 36.5128L22.6162 33.8346C22.6162 33.8346 22.2888 33.656 22.2591 33.6263Z" fill="#545D94"/>
<path d="M22.616 33.8346C22.1399 33.5966 21.4555 33.9834 21.0686 34.7274C20.6818 35.4713 20.652 36.2748 21.1281 36.5129C21.6043 36.7509 22.378 36.3641 22.7648 35.6201C23.1517 34.8762 23.0922 34.0727 22.616 33.8346Z" fill="#a0cb8c"/>
<path d="M17.4976 35.7098C17.4976 35.7098 18.1226 35.2336 18.5392 34.1921C18.7177 33.7457 19.0451 34.1921 19.3427 33.716C19.9973 32.6447 20.9496 31.6329 22.259 31.246C25.5919 30.2343 24.104 34.5492 24.104 34.5492L25.086 33.9838C25.086 33.9838 25.7109 29.4308 22.2887 30.5021C20.4437 31.0972 19.3427 31.6329 18.5094 32.853C18.3606 33.0613 18.1821 33.8945 18.1821 33.8945L16.5156 34.9361C16.5156 34.9361 16.7239 35.9776 16.6644 36.2157C16.5454 36.6025 16.9025 36.9001 16.9025 36.9001C17.4381 36.5132 17.3489 36.2157 17.4976 35.7098Z" fill="#cffac8"/>
</svg>