<svg xmlns="http://www.w3.org/2000/svg" width="48" height="48" viewBox="0 0 48 48" fill="none">
<mask id="mask0_2603_840" style="mask-type:alpha" maskUnits="userSpaceOnUse" x="0" y="0" width="48" height="48" fill="#000000">
<rect width="48" height="48" fill="#C4C4C4"/>
</mask>
<g mask="url(#mask0_2603_840)">
<path d="M40.5414 38.3999L16.8368 44.7507C13.6614 45.6368 10.4122 43.7168 9.52606 40.5414L3.24914 16.9107C2.36298 13.7353 4.28298 10.4861 7.45837 9.5999L31.163 3.24914C34.3384 2.36298 37.5876 4.28298 38.4737 7.45837L44.8245 31.163C45.6368 34.3384 43.7168 37.5876 40.5414 38.3999Z" fill="#1330f0"/>
<path d="M27.9878 19.4957C27.9878 19.4957 26.5109 18.0926 26.5847 17.2803C26.6586 16.468 26.8801 16.0249 27.3232 16.0988C27.7662 16.1726 28.2832 16.8373 28.357 17.1326C28.357 17.428 28.0616 18.0926 28.357 18.4619C28.5786 18.8311 28.8739 19.4957 27.9878 19.4957Z" fill="#FF1C44"/>
<path d="M19.7908 26.8804C19.7169 27.1019 19.2738 26.8804 18.9046 28.3573C18.3138 28.9481 18.1661 29.7604 18.1661 30.2034V33.305C18.1661 33.9696 18.3877 34.5604 18.8308 35.0773C19.0523 35.2988 19.9384 34.7819 20.2338 34.9296C22.6708 36.3327 25.3292 37.6619 25.3292 37.6619C26.7323 38.4742 27.4708 39.7296 29.0954 39.7296H30.4246L31.68 30.0558L19.7908 26.8804Z" fill="#545D94"/>
<path d="M18.757 29.9078L19.2001 29.6862C19.2001 28.5047 19.5693 27.5447 19.5693 27.5447L21.1201 26.1416L19.6432 26.8801C19.5693 27.1016 19.3478 26.8801 18.9786 28.357C18.3878 28.9478 18.2401 29.7601 18.2401 30.2031V31.237C18.2401 32.197 18.2401 32.7878 18.2401 33.3047C18.2401 33.3047 18.5355 33.3785 18.5355 33.157C18.5355 31.9016 18.757 29.9078 18.757 29.9078Z" fill="#8C95CB"/>
<path d="M32.9352 13.2464C31.9752 13.7633 31.1629 14.5018 30.4245 15.3141L25.9199 20.4833C25.6245 20.8525 25.3291 21.1479 24.9599 21.3695L20.6029 24.7664C20.3075 24.9879 20.6768 25.6525 20.5291 25.9479C20.3075 26.391 19.5691 26.6864 19.5691 27.2033L19.4952 27.6464C19.4952 27.9418 20.6768 28.8279 21.046 28.0895C21.3414 27.5725 22.6706 30.7479 23.1875 30.9695L26.4368 30.6741C27.2491 31.1171 25.9199 32.9633 26.8799 32.8156L30.5722 32.5202C31.2368 32.4464 31.9014 32.2248 32.4922 31.8556L36.9968 29.271L39.5814 30.0833L43.2737 25.431L39.0645 9.62791L32.9352 13.2464Z" fill="#C8C8FA"/>
<path d="M41.6491 19.5903L41.5014 19.6642L39.5075 25.3503C38.8429 27.2703 37.5137 28.8211 35.8152 29.8549L32.7137 31.6273C31.9014 32.0703 31.0891 32.3657 30.2029 32.4396C30.2029 32.4396 28.6522 33.1042 27.3229 34.2857L26.5106 37.1657C26.5106 38.5688 27.6922 39.7503 29.0952 39.7503H30.4245C31.8275 39.7503 33.1568 39.3811 34.4122 38.7165L44.9722 32.5873C44.9722 32.1442 44.8983 31.6273 44.7506 31.1842L41.6491 19.5903Z" fill="#8C95CB"/>
<path d="M26.5106 20.2343L30.7936 15.2127C31.0152 14.9173 31.4583 14.9173 31.7536 15.1389C32.4921 15.7296 33.8213 16.9112 35.2983 17.7235C36.7752 18.6096 38.9167 19.4958 39.9506 19.865C40.3198 20.0127 40.4675 20.382 40.3198 20.7512L37.9567 26.7327C37.7352 27.2496 37.1444 27.4712 36.6275 27.3235C34.929 26.6589 31.5321 25.2558 29.6121 24.1481C28.1352 23.262 27.1013 22.3019 26.5106 21.6373C26.1413 21.1943 26.1413 20.6773 26.5106 20.2343Z" fill="#FAFBFF"/>
<path d="M28.2832 36.1109C28.1355 36.4063 29.0217 36.997 29.0217 37.4401L27.0278 37.3663L28.1355 39.5816L25.3293 38.2524L26.5109 35.077L30.794 33.6001C30.794 33.6739 28.4309 35.8155 28.2832 36.1109Z" fill="#545D94"/>
<path d="M31.6063 33.2313C30.4986 33.6744 28.4309 34.339 26.5109 33.9698L25.1078 32.419L21.2678 32.1236L19.2001 29.6867C19.2001 29.6867 19.0524 28.579 19.2001 27.3975C19.2001 27.3975 18.314 30.2036 19.1263 30.7944C19.1263 31.3852 19.2001 31.9759 19.4955 32.1975C19.6432 32.2713 19.9386 32.419 20.3817 32.6405L21.0463 33.6005L24.3694 34.7082C24.4432 34.7082 24.4432 34.7821 24.517 34.7821C25.4032 35.2252 26.1417 35.5944 26.3632 35.7421C26.6586 35.8898 26.7324 35.6682 26.7324 35.299C27.2494 35.299 28.1355 35.299 29.4647 35.0036C29.7601 34.9298 30.4986 34.4128 31.6801 33.379C31.9017 33.3052 31.754 33.1575 31.6063 33.2313Z" fill="#141938"/>
<path d="M40.0248 35.4669L39.9509 32.7346L39.3601 31.9961H37.1448L35.5201 33.1038C34.1171 34.0638 33.1571 35.6146 33.1571 37.4607L32.714 38.8638L32.8617 39.3807C32.8617 39.3807 33.3786 39.233 33.8955 38.9376L33.9694 39.0115L35.5201 39.8072L35.7417 39.0115C36.7017 38.4207 37.514 37.6084 37.9571 36.5746C39.0648 35.9838 40.0248 35.4669 40.0248 35.4669Z" fill="#141938"/>
<path d="M32.8616 39.3605C32.8616 39.3605 34.117 33.3051 37.5877 32.2713C41.0585 31.2374 39.5077 35.7421 39.5077 35.7421L40.5416 35.1513C40.5416 35.1513 41.2062 30.3513 37.5877 31.5328C32.9354 33.0098 31.5323 39.6559 31.5323 39.6559C31.9754 39.8036 32.4923 39.5821 32.8616 39.3605Z" fill="#C8C8FA"/>
<path d="M19.0522 33.0835L26.5107 37.3666C27.0276 38.5481 27.4707 39.2866 27.4707 39.2866C26.8799 39.4343 26.2153 38.622 25.6983 38.4743C25.1814 38.3266 19.4953 36.0373 19.4953 36.0373C18.9783 35.6681 18.5353 34.9297 18.3876 34.6343C18.4614 34.1173 19.0522 33.0835 19.0522 33.0835Z" fill="#141938"/>
<path d="M26.2892 21.3418C25.8461 21.9326 25.4769 22.5233 25.0338 23.1141C24.6646 23.7049 24.2215 24.2956 23.8523 24.8864C23.4092 25.4772 22.9661 26.068 22.523 26.5849C22.3753 26.7326 22.3015 26.8064 22.08 27.028C21.9323 27.1756 21.6369 27.2495 21.4153 27.1756C21.1938 27.1018 21.0461 27.028 20.8984 26.9541C20.8984 26.9541 20.8246 26.9541 20.8246 27.028C20.8246 27.1018 20.8246 27.1756 20.7507 27.3233C20.7507 27.2495 20.6769 27.1756 20.6769 27.028C20.6769 26.9541 20.6769 26.9541 20.6769 26.8803C20.6769 26.8064 20.8246 26.7326 20.8984 26.7326C21.12 26.7326 21.2676 26.8064 21.4153 26.8064C21.563 26.8064 21.6369 26.7326 21.7107 26.6587C21.7846 26.5849 21.9323 26.3633 22.0061 26.2156C22.3753 25.6249 22.8184 25.0341 23.1876 24.3695C23.6307 23.7787 24.0738 23.188 24.5169 22.671C25.1076 22.228 25.6246 21.711 26.2892 21.3418Z" fill="#8C95CB"/>
<path d="M35.9631 27.3232C35.0031 28.0617 33.8216 28.6525 32.64 29.0956C32.0493 29.3171 31.4585 29.5386 30.8677 29.6863C30.2769 29.834 29.6123 29.9817 29.1692 30.2032L29.2431 30.1294C28.9477 30.4986 28.7262 30.8679 28.4308 31.1632L28.3569 31.2371H28.2831C27.84 31.1632 27.3969 31.0894 27.0277 30.9417C27.4708 30.8679 27.9139 30.8679 28.3569 30.8679L28.2093 30.9417C28.4308 30.5725 28.6523 30.1294 28.8739 29.7602V29.6863L28.9477 29.6125C29.5385 29.2432 30.1292 29.0955 30.72 28.874C31.3108 28.6525 31.9016 28.5048 32.4923 28.3571L35.9631 27.3232Z" fill="#8C95CB"/>
<path d="M40.9109 25.6986C40.7632 26.1417 41.2801 26.4371 41.6493 26.2155L43.2739 25.1817L42.1663 21.4155C42.0924 21.5632 42.0186 21.7109 42.0186 21.8586L40.9109 25.6986Z" fill="#FF858D"/>
<path d="M28.8739 35.9628C28.8739 35.9628 29.2431 36.849 29.9816 36.9228C30.7201 36.9967 30.8677 35.3721 30.8677 35.3721L28.8739 35.9628Z" fill="#545D94"/>
<path d="M19.3478 32.8615C18.4617 32.1969 17.6493 32.7877 17.4278 33.0831L16.6155 31.3846L16.6893 29.6861C16.5417 29.5385 17.0586 28.3569 16.9109 28.2092C16.4678 27.7661 16.3201 26.6585 16.3201 26.6585C15.3601 25.92 14.3263 25.2554 13.1447 24.4431C13.1447 24.4431 10.9293 19.8646 9.7478 18.6092C8.56627 17.3538 4.80011 15.0646 3.10165 14.0308C2.95396 14.9908 2.95396 15.9508 3.24934 16.9108L8.7878 37.5138L20.234 34.8554L19.3478 32.8615Z" fill="#ffca61"/>
<path d="M20.1601 36.7018V34.8556L18.8309 34.191L19.3478 32.8618C18.9786 32.7879 18.9047 32.7879 18.9047 32.4187C18.3878 31.7541 17.4278 31.6802 17.354 31.3849C17.1324 30.6464 17.1324 28.5049 16.9109 28.2095L15.6555 29.8341L16.6894 31.3849C16.6894 31.3849 16.6155 31.8279 12.8493 33.9695C11.7417 34.6341 9.8955 35.5202 8.41858 36.1849L9.60012 40.5418C9.8955 41.7233 10.5601 42.6833 11.3724 43.4218L18.757 39.1387C19.6432 38.6218 20.1601 37.7356 20.1601 36.7018Z" fill="#FAAF37"/>
<path d="M11.0033 39.0646L15.1386 36.7015C15.3602 36.5538 15.7294 36.7015 15.7294 36.9969V39.4338C15.7294 39.6553 15.5817 39.8769 15.3602 40.0246L11.2248 42.3877C11.0033 42.5353 10.634 42.3876 10.634 42.0923V39.6553C10.634 39.36 10.7817 39.1384 11.0033 39.0646Z" fill="#545D94"/>
<path d="M18.0925 36.5539C18.7571 35.5201 20.1602 34.8555 20.1602 34.8555V36.1847C20.1602 36.7755 19.8648 37.2924 19.3479 37.5878L17.8709 38.4001C17.5755 38.5478 17.2802 38.3262 17.354 37.957C17.5755 37.5878 17.7971 36.997 18.0925 36.5539Z" fill="#545D94"/>
<path d="M18.0925 36.5539C18.2402 36.2585 18.4617 36.037 18.7571 35.8154L18.3879 36.7754L18.7571 37.2924L19.4955 35.8893L19.5694 36.4062L20.1602 36.1847C20.1602 36.7754 19.8648 37.2924 19.3479 37.5877L17.8709 38.4C17.5755 38.5477 17.2802 38.3262 17.354 37.957C17.5755 37.5877 17.7971 36.997 18.0925 36.5539Z" fill="#FF858D"/>
<path d="M10.3385 20.5292C9.96927 19.9385 9.2308 19.7908 8.64004 20.0862L4.65234 22.3754L6.27696 28.3569L12.5539 24.8123C11.9631 23.4092 11.077 21.7108 10.3385 20.5292Z" fill="#FF858D"/>
<path d="M17.723 33.3047C17.8707 33.157 18.7568 33.2309 18.9045 32.3447L8.86145 38.0309L9.30453 39.5816L18.1661 34.4863L17.723 33.3047Z" fill="#ffca61"/>
<path d="M18.3877 32.5661L18.9047 32.4185L19.3477 32.8615L18.9785 33.4523L16.0247 34.56L17.28 33.0092L18.3877 32.5661Z" fill="#545D94"/>
<path d="M18.4617 33.6L16.837 33.8954L17.5755 33.3785L17.2801 33.0093L8.41858 36.2585L8.64012 37.2185L15.877 34.56L18.4617 33.6Z" fill="#FF1C44"/>
<path d="M9.52637 35.8893L9.82175 36.8493L15.8771 34.5601L16.4679 33.3047L9.52637 35.8893Z" fill="#545D94"/>
<path d="M38.0309 33.3784C37.7356 33.3784 37.4402 33.4523 37.1448 33.6C35.594 34.4861 34.4863 36.2584 34.4863 38.1784C34.4863 39.1384 35.2986 39.9507 36.2586 39.9507C36.554 39.9507 36.9233 39.8769 37.1448 39.7292C38.6956 38.843 39.8033 37.0707 39.8033 35.1507C39.8033 34.1907 38.9909 33.3784 38.0309 33.3784Z" fill="#545D94"/>
<path d="M44.0863 25.5507C43.6432 25.3291 42.4616 24.8122 42.0186 24.8861C41.7232 24.8861 41.4278 25.2553 41.2801 25.6984C41.0586 25.7722 40.6893 25.9199 40.6893 26.0676C40.6893 26.2891 41.1324 26.4368 41.3539 26.4368C41.4278 26.5845 41.5755 26.6584 41.7232 26.7322C41.9447 26.8061 43.717 27.1014 44.1601 26.6584C44.677 26.1414 44.5293 25.7722 44.0863 25.5507Z" fill="#FF1C44"/>
<path d="M11.6679 39.6558H16.3941C16.6894 39.6558 16.8371 39.9511 16.6894 40.2465L15.5079 42.3142C15.3602 42.5358 15.1387 42.6835 14.9171 42.6835H10.191C9.89559 42.6835 9.74789 42.3881 9.89559 42.0927L11.0771 40.025C11.2248 39.8035 11.4464 39.6558 11.6679 39.6558Z" fill="#FAFBFF"/>
</g>
</svg>