<svg xmlns="http://www.w3.org/2000/svg" width="360" height="208" viewBox="0 0 360 208" fill="none">
<mask id="mask0_2603_4015" style="mask-type:alpha" maskUnits="userSpaceOnUse" x="0" y="0" width="360" height="208" fill="#000000">
<rect width="360" height="208" fill="#1d46eb"/>
</mask>
<g mask="url(#mask0_2603_4015)">
<mask id="mask1_2603_4015" style="mask-type:alpha" maskUnits="userSpaceOnUse" x="0" y="-28" width="360" height="353" fill="#000000">
<rect width="360" height="353" transform="matrix(-1 0 0 1 360 -28)" fill="#C4C4C4"/>
</mask>
<g mask="url(#mask1_2603_4015)">
<path d="M375.755 187.298C375.755 187.298 356.781 195.86 337.806 194.934C318.832 194.009 315.361 187.298 315.361 187.298C315.361 187.298 342.743 178.66 375.755 187.298Z" fill="#D0D5F4"/>
<path d="M315.439 187.298C315.439 187.298 318.91 194.009 337.884 194.934C356.858 195.86 375.833 187.298 375.833 187.298C395.424 227.638 391.722 252.552 367.348 263.659H324C298.315 252.475 292.762 228.718 315.439 187.298Z" fill="#E1E4F4"/>
<path d="M315.438 194.086C322.997 206.658 350.61 203.573 372.516 197.634C372.516 197.634 321.454 218.768 315.438 194.086Z" fill="#D0D5F4"/>
<path d="M302.635 168.941C302.635 184.522 322.227 197.171 346.446 197.171C370.665 197.171 390.257 184.522 390.257 168.941V163.85C390.257 148.27 370.665 135.62 346.446 135.62C322.227 135.62 302.635 148.27 302.635 163.85V168.941Z" fill="#D0D5F4"/>
<path d="M291.218 170.792C284.354 168.247 295.692 165.702 298.16 166.396C301.631 167.321 313.664 173.877 306.413 178.197C310.81 180.279 316.286 181.282 319.603 185.139C325.002 191.772 317.058 193.392 312.353 188.455C310.81 195.937 286.282 188.224 300.629 184.367C297.775 183.673 291.527 186.296 289.29 184.213C283.582 178.891 298.546 177.04 300.629 176.963C297.389 174.495 295.384 172.258 291.218 170.792C294.689 172.026 287.825 169.481 291.218 170.792Z" fill="#D0D5F4"/>
<path d="M319.372 191.464C316.518 190.769 310.271 193.469 308.034 191.309C302.326 185.987 317.29 184.136 319.372 184.059C316.133 181.514 314.127 179.277 309.962 177.811C306.568 176.5 313.433 179.045 309.962 177.811C303.097 175.266 314.436 172.721 316.904 173.415C320.375 174.34 332.408 180.897 325.157 185.216C329.554 187.298 335.03 188.301 338.347 192.158C343.746 198.791 335.801 200.411 331.096 195.474C329.554 202.956 305.026 195.243 319.372 191.464Z" fill="#E1E4F4"/>
<path d="M300.937 153.592C296.077 149.272 306.259 150.815 308.11 152.203C310.655 154.055 318.445 163.465 311.118 164.622C314.049 167.784 318.291 170.329 319.757 174.649C322.071 181.899 314.975 180.665 312.661 175.034C308.958 180.742 291.218 166.396 304.253 167.861C302.094 166.319 296.077 166.55 294.92 164.082C291.989 157.834 304.947 161.151 306.644 161.768C304.793 158.605 303.868 156.137 300.937 153.592C303.405 155.752 298.546 151.432 300.937 153.592Z" fill="#E1E4F4"/>
<path d="M305.334 150.198C300.937 144.336 313.278 145.339 315.438 145.647C313.124 143.95 309.576 137.548 313.355 134.926C316.441 132.766 319.757 140.402 321.763 141.945C324.231 137.008 328.01 131.532 333.332 129.449C338.423 127.521 346.213 132.072 340.583 137.857C335.724 142.87 329.09 143.487 324.539 150.198C321.3 154.98 319.14 147.421 317.289 146.65C321.917 152.435 308.65 154.672 305.334 150.198C306.645 151.972 304.562 149.195 305.334 150.198Z" fill="#D0D5F4"/>
<path d="M384.163 179.277C391.027 176.731 379.689 174.186 377.221 174.88C373.75 175.806 361.717 182.362 368.968 186.681C364.571 188.764 359.095 189.767 355.778 193.623C350.379 200.256 358.323 201.876 363.029 196.94C364.571 204.422 389.099 196.708 374.753 192.852C377.606 192.158 383.854 194.78 386.091 192.698C391.799 187.375 376.835 185.524 374.753 185.447C377.992 182.979 379.998 180.742 384.163 179.277C387.556 178.042 380.692 180.511 384.163 179.277Z" fill="#E1E4F4"/>
<path d="M388.867 151.664C393.263 145.801 380.922 146.804 378.763 147.113C381.077 145.416 384.625 139.014 380.845 136.391C377.76 134.232 374.443 141.868 372.438 143.41C369.97 138.474 366.19 132.998 360.868 130.915C355.777 128.987 347.987 133.538 353.618 139.322C358.477 144.336 365.11 144.953 369.661 151.664C372.901 156.446 375.06 148.887 376.911 148.115C372.284 153.977 385.473 156.137 388.867 151.664C389.561 150.661 387.478 153.515 388.867 151.664Z" fill="#D0D5F4"/>
<path d="M290.68 167.476C285.358 162.385 297.776 161.382 299.936 161.382C297.391 160.071 292.84 154.286 296.156 151.124C298.856 148.501 303.33 155.52 305.567 156.677C307.263 151.355 310.117 145.416 314.977 142.485C319.682 139.708 328.166 143.025 323.538 149.581C319.527 155.289 313.125 156.908 309.655 164.39C307.263 169.635 303.87 162.539 301.941 161.999C307.418 167.09 294.691 171.409 290.68 167.476C292.3 169.095 289.754 166.627 290.68 167.476Z" fill="#F7F7FA"/>
<path d="M359.79 169.79C352.925 167.244 364.264 164.699 366.732 165.393C370.203 166.319 382.235 172.875 374.985 177.194C379.382 179.277 384.858 180.279 388.175 184.136C393.574 190.769 385.629 192.389 380.924 187.453C379.382 194.934 354.854 187.221 369.2 183.365C366.346 182.671 360.099 185.293 357.862 183.21C352.154 177.888 367.118 176.037 369.2 175.96C365.961 173.492 363.878 171.255 359.79 169.79C363.261 171.024 356.396 168.555 359.79 169.79Z" fill="#E1E4F4"/>
<path d="M347.294 198.097C341.278 202.262 345.752 191.541 347.68 189.921C350.38 187.607 362.721 181.591 362.104 189.921C366.346 187.53 370.28 183.596 375.37 183.21C383.932 182.593 380.615 189.998 373.905 191.078C379.15 196.631 358.71 212.212 363.801 198.328C361.564 200.256 360.175 206.89 357.167 207.507C349.531 209.049 356.627 195.783 357.784 194.009C353.851 195.166 350.92 195.551 347.294 198.097C350.38 195.937 344.286 200.102 347.294 198.097Z" fill="#F7F7FA"/>
<path d="M346.523 180.434C348.759 176.114 359.095 182.13 357.552 186.373C355.393 192.852 344.517 184.29 346.523 180.434C347.294 178.968 345.906 181.591 346.523 180.434Z" fill="#E1E4F4"/>
<path d="M340.275 177.425C342.434 177.888 349.145 181.591 342.666 183.519C335.647 185.679 334.952 176.577 340.275 177.425C341.432 177.734 336.109 176.731 340.275 177.425Z" fill="#F7F7FA"/>
<path d="M314.898 167.553C313.818 169.481 308.419 174.88 308.342 168.17C308.265 160.765 317.289 162.693 314.898 167.553C316.749 163.773 314.358 168.555 314.898 167.553Z" fill="#F7F7FA"/>
<path d="M328.705 166.087C328.011 167.321 324.54 170.792 324.463 166.473C324.463 161.768 330.248 162.925 328.705 166.087C329.939 163.619 328.319 166.781 328.705 166.087Z" fill="#F7F7FA"/>
<path d="M-74.8049 243.293C-74.8049 243.293 -79.2014 216.22 -62.3096 208.969L-46.1119 203.185C-46.1119 203.185 -19.5785 187.912 -13.1766 176.266C-11.3254 172.872 -10.6313 169.015 -8.08591 165.621C-2.22389 157.754 6.33773 156.443 15.6707 155.748C41.5098 153.82 67.6575 152.663 93.5738 152.278C118.102 151.969 142.784 153.126 167.235 156.134C182.738 158.062 196.082 163.462 195.388 164.541L92.4168 285.099C80.23 284.636 70.5114 286.333 58.3246 285.87C34.9537 284.944 9.11449 283.402 -14.2565 282.553C-29.7599 282.09 -46.4204 282.862 -61.7696 280.702C-70.3313 279.545 -73.8022 271.292 -73.3394 263.116L-74.8049 243.293Z" fill="#E1E4F4"/>
<path d="M11.1208 159.682C8.4983 160.685 6.26145 162.613 4.48742 164.773C2.71339 166.933 1.24788 169.478 0.245171 172.1C-1.83739 177.422 -2.76293 183.053 -2.99433 188.761C-3.14859 194.391 -3.07147 199.945 -3.1486 205.576L-3.30288 222.39L-2.60867 221.619C-8.70208 222.776 -14.7955 224.01 -20.8889 225.398C-23.8971 226.093 -26.9823 226.787 -29.9905 227.481C-32.9986 228.175 -36.0068 228.946 -39.0149 229.795L-29.8362 228.098L-20.6575 226.478L-2.30017 223.239L-1.60596 223.084V222.39C-1.4517 216.76 -1.3746 211.206 -1.29747 205.576V197.168C-1.29747 194.391 -1.37458 191.538 -1.37458 188.761C-1.29745 183.207 -0.603245 177.654 1.24792 172.486C2.1735 169.864 3.40758 167.395 5.02735 165.158C5.8758 164.079 6.72428 162.999 7.80412 162.073C8.72971 161.071 9.88667 160.222 11.1208 159.682Z" fill="#D0D5F4"/>
<path d="M186.133 256.174C176.338 289.958 151.27 285.638 151.27 285.638L73.4437 285.87C83.4709 284.327 85.0135 258.565 85.0135 258.565C84.5507 218.919 145.253 205.653 145.253 205.653C165.77 156.134 195.312 164.619 195.312 164.619C195.312 164.619 207.962 180.816 186.133 256.174Z" fill="#D0D5F4"/>
<path d="M186.133 256.174C176.337 289.958 151.269 285.638 151.269 285.638L73.4432 285.87C83.4704 284.327 85.013 258.565 85.013 258.565C84.5502 218.919 145.253 205.653 145.253 205.653C165.77 156.134 195.311 164.619 195.311 164.619C195.311 164.619 207.961 180.816 186.133 256.174Z" fill="#D0D5F4"/>
<path d="M374.201 79.2337H300V-11.2419H374.201V79.2337ZM304.551 74.6058H369.496V-6.61403H304.551V74.6058Z" fill="#E1E4F4"/>
<path d="M360.703 4.80151H313.344V63.1903H360.703V4.80151Z" fill="#E1E4F4"/>
</g>
<path d="M249.046 160.328L257.758 175.818C259.444 173.977 267.329 170.666 270.896 164.287C274.14 165.183 276.837 170.997 275.899 174.021C269.215 182.304 254.87 197.01 250.673 193.187C244.068 187.169 238.542 173.032 238.542 173.032L249.046 160.328Z" fill="#FAC2A8"/>
<path d="M272.103 168.017C272.103 168.017 267.314 167.574 268.028 158.804C268.179 156.963 269.083 153.798 269.191 152.775C269.298 151.753 269.152 148.13 268.331 147.015C267.505 145.9 266.972 145.091 267.637 144.273C268.301 143.455 271.736 142.924 273.275 146.25C274.814 149.576 274.013 152.371 274.013 152.371C274.013 152.371 276.749 148.972 278.147 148.972C278.752 148.972 285.05 148.578 286.374 150.151C286.878 150.745 288.168 163.853 287.982 164.491C287.796 165.134 281.738 175.365 275.787 174.342C273.065 173.875 272.103 168.333 272.103 168.017Z" fill="#FAC2A8"/>
<path d="M284.537 161.741C284.18 161.58 283.848 161.482 283.496 161.448L282.441 161.385C281.732 161.351 281.024 161.317 280.286 161.366C280.1 161.38 279.915 161.4 279.709 161.453C279.494 161.502 279.26 161.648 279.128 161.77C278.82 162.028 278.586 162.305 278.356 162.588C277.902 163.167 277.511 163.718 277.144 164.394C276.978 164.745 276.851 165.105 276.802 165.51C276.748 165.909 276.807 166.352 277.012 166.727C277.213 167.107 277.53 167.389 277.862 167.594C278.2 167.803 278.556 167.939 278.918 168.032C279.279 168.129 279.641 168.193 280.007 168.227C280.188 168.246 280.374 168.256 280.559 168.261C280.755 168.261 280.906 168.271 281.16 168.227C281.6 168.09 281.884 167.881 282.182 167.657C282.328 167.545 282.465 167.428 282.602 167.306C282.743 167.175 282.851 167.082 283.012 166.897L282.607 166.6C282.182 167 281.542 167.511 281.033 167.667C280.936 167.681 280.735 167.681 280.579 167.672C280.413 167.662 280.242 167.647 280.076 167.628C279.744 167.584 279.411 167.516 279.094 167.423C278.468 167.233 277.858 166.922 277.603 166.425C277.335 165.938 277.472 165.281 277.755 164.711C277.882 164.448 278.107 164.136 278.288 163.859C278.483 163.576 278.678 163.289 278.884 163.021C279.089 162.753 279.309 162.49 279.543 162.291C279.67 162.184 279.744 162.135 279.871 162.096C280.007 162.057 280.169 162.038 280.335 162.018C281.004 161.96 281.708 161.979 282.406 161.999C283.11 161.979 283.828 162.174 284.537 161.741Z" fill="#DC918B"/>
<path d="M284.239 157.66C283.125 157.392 282.045 157.524 280.95 157.582C280.403 157.621 279.856 157.66 279.299 157.728C279.015 157.772 278.752 157.791 278.424 157.908C278.068 158.035 277.848 158.283 277.643 158.512C277.261 158.994 277.037 159.53 276.856 160.065C276.675 160.606 276.553 161.156 276.485 161.721C276.411 162.281 276.411 162.856 276.494 163.43C276.587 164.029 276.787 164.536 277.051 165.057L277.53 164.823C277.428 164.589 277.344 164.341 277.271 164.093C277.188 163.839 277.144 163.596 277.11 163.347C277.056 162.841 277.09 162.32 277.154 161.804C277.301 160.781 277.613 159.72 278.19 158.941C278.336 158.765 278.502 158.59 278.669 158.536C278.854 158.458 279.138 158.42 279.392 158.376C279.919 158.298 280.457 158.244 280.999 158.196C282.079 158.088 283.173 158.093 284.239 157.66Z" fill="#DC918B"/>
<path d="M276.944 161.477C276.451 161.132 276.06 160.659 275.845 160.114C275.62 159.569 275.591 158.955 275.645 158.351C275.796 157.139 276.285 155.902 277.042 154.952C277.428 154.48 277.887 154.086 278.439 153.939C279.021 153.779 279.675 153.735 280.316 153.706C280.96 153.672 281.615 153.686 282.275 153.657C282.602 153.642 282.934 153.613 283.267 153.564C283.594 153.501 283.946 153.452 284.234 153.258C283.902 153.277 283.584 153.219 283.257 153.19C282.934 153.16 282.607 153.131 282.28 153.112C281.625 153.078 280.965 153.082 280.301 153.092C279.636 153.112 278.967 153.136 278.273 153.306C277.535 153.487 276.944 153.983 276.5 154.509C276.04 155.045 275.718 155.658 275.459 156.291C275.205 156.929 275.024 157.587 274.946 158.283C274.873 158.974 274.941 159.71 275.234 160.372C275.518 161.039 276.026 161.599 276.632 161.969L276.944 161.477Z" fill="#DC918B"/>
<path d="M275.147 151.042C274.668 151.354 274.248 151.719 273.954 152.264C273.671 152.814 273.651 153.472 273.778 154.037C273.901 154.597 274.081 155.166 274.497 155.653C274.707 155.892 274.99 156.082 275.308 156.17C275.611 156.267 275.958 156.252 276.202 156.238V155.702C275.899 155.712 275.689 155.717 275.469 155.649C275.254 155.585 275.068 155.463 274.917 155.288C274.614 154.938 274.438 154.436 274.35 153.934C274.257 153.433 274.277 152.951 274.463 152.503C274.624 152.04 274.985 151.612 275.147 151.042Z" fill="#DC918B"/>
<path d="M280.276 166.493C280.687 166.634 281.097 166.77 281.517 166.848C281.937 166.936 282.367 166.985 282.797 167.009C283.232 167.019 283.672 167.004 284.102 166.912C284.527 166.824 284.991 166.668 285.289 166.332C284.869 166.454 284.468 166.459 284.053 166.459C283.643 166.454 283.232 166.444 282.817 166.425C282.402 166.415 281.981 166.395 281.561 166.395C281.146 166.405 280.716 166.39 280.276 166.493Z" fill="#DC918B"/>
<path d="M184.058 160.46L175.997 176.217C174.311 174.377 164.671 170.666 161.104 164.287C157.86 165.183 155.163 170.997 156.101 174.021C162.785 182.304 173.383 196.397 179.641 192.676C187.327 188.104 193.459 173.033 193.459 173.033L184.058 160.46Z" fill="#FAC2A8"/>
<path d="M159.897 168.017C159.897 168.017 164.685 167.574 163.972 158.804C163.82 156.963 162.917 153.798 162.809 152.775C162.702 151.753 162.848 148.13 163.669 147.015C164.495 145.9 165.027 145.091 164.363 144.273C163.698 143.455 160.263 142.924 158.724 146.25C157.185 149.576 157.987 152.371 157.987 152.371C157.987 152.371 155.25 148.972 153.853 148.972C153.247 148.972 146.949 148.578 145.625 150.151C145.122 150.745 143.832 163.853 144.018 164.491C144.203 165.134 150.262 175.365 156.213 174.342C158.939 173.875 159.902 168.333 159.897 168.017Z" fill="#FAC2A8"/>
<path d="M147.467 161.74C148.176 162.174 148.894 161.979 149.593 161.989C150.291 161.969 150.995 161.95 151.664 162.008C151.83 162.023 151.992 162.047 152.128 162.086C152.26 162.12 152.329 162.174 152.456 162.281C152.685 162.48 152.905 162.743 153.115 163.011C153.325 163.279 153.516 163.566 153.711 163.849C153.897 164.126 154.122 164.438 154.244 164.701C154.527 165.266 154.664 165.928 154.395 166.415C154.141 166.917 153.526 167.228 152.905 167.413C152.588 167.511 152.26 167.579 151.923 167.618C151.757 167.642 151.586 167.657 151.42 167.662C151.264 167.671 151.063 167.671 150.966 167.657C150.457 167.501 149.817 166.99 149.392 166.59L148.987 166.887C149.148 167.077 149.255 167.165 149.397 167.296C149.534 167.418 149.671 167.535 149.817 167.647C150.115 167.871 150.399 168.08 150.838 168.217C151.088 168.261 151.244 168.251 151.439 168.251C151.625 168.246 151.806 168.236 151.992 168.217C152.358 168.183 152.72 168.119 153.081 168.022C153.443 167.925 153.799 167.788 154.136 167.584C154.469 167.379 154.791 167.097 154.987 166.717C155.192 166.342 155.25 165.899 155.197 165.5C155.148 165.095 155.026 164.735 154.855 164.384C154.488 163.708 154.097 163.157 153.643 162.578C153.413 162.295 153.179 162.018 152.871 161.76C152.734 161.638 152.5 161.492 152.29 161.443C152.084 161.395 151.899 161.37 151.713 161.356C150.975 161.307 150.267 161.341 149.558 161.375L148.503 161.438C148.156 161.482 147.824 161.575 147.467 161.74Z" fill="#DC918B"/>
<path d="M147.765 157.66C148.83 158.093 149.925 158.084 151.005 158.196C151.547 158.244 152.084 158.298 152.612 158.376C152.866 158.42 153.15 158.458 153.335 158.536C153.501 158.59 153.667 158.765 153.814 158.941C154.395 159.72 154.708 160.781 154.85 161.804C154.913 162.32 154.948 162.841 154.894 163.347C154.86 163.596 154.816 163.834 154.733 164.093C154.659 164.341 154.576 164.594 154.474 164.823L154.952 165.057C155.211 164.536 155.412 164.029 155.509 163.43C155.592 162.856 155.592 162.281 155.519 161.721C155.446 161.161 155.324 160.606 155.148 160.065C154.962 159.53 154.737 158.994 154.361 158.512C154.156 158.283 153.936 158.035 153.579 157.908C153.257 157.791 152.988 157.772 152.705 157.728C152.148 157.66 151.601 157.621 151.053 157.582C149.959 157.524 148.879 157.392 147.765 157.66Z" fill="#DC918B"/>
<path d="M155.378 161.964C155.984 161.594 156.492 161.034 156.775 160.367C157.068 159.705 157.137 158.965 157.064 158.278C156.985 157.582 156.805 156.924 156.551 156.287C156.292 155.653 155.964 155.035 155.51 154.504C155.065 153.978 154.474 153.482 153.736 153.302C153.042 153.131 152.373 153.112 151.709 153.087C151.044 153.078 150.385 153.073 149.73 153.107C149.402 153.126 149.075 153.155 148.753 153.185C148.425 153.214 148.108 153.272 147.775 153.253C148.064 153.448 148.42 153.496 148.743 153.56C149.075 153.608 149.407 153.638 149.735 153.652C150.394 153.681 151.044 153.667 151.694 153.701C152.334 153.735 152.989 153.779 153.57 153.935C154.122 154.081 154.582 154.475 154.967 154.947C155.725 155.897 156.213 157.129 156.365 158.346C156.423 158.95 156.389 159.564 156.165 160.109C155.95 160.654 155.554 161.127 155.065 161.473L155.378 161.964Z" fill="#DC918B"/>
<path d="M156.858 151.042C157.014 151.612 157.38 152.04 157.547 152.493C157.732 152.936 157.757 153.423 157.659 153.925C157.571 154.426 157.395 154.928 157.092 155.278C156.941 155.454 156.755 155.575 156.54 155.639C156.32 155.707 156.11 155.707 155.807 155.692V156.228C156.047 156.243 156.393 156.257 156.701 156.16C157.014 156.072 157.302 155.882 157.512 155.644C157.928 155.162 158.108 154.587 158.231 154.027C158.358 153.467 158.338 152.805 158.055 152.254C157.757 151.714 157.336 151.354 156.858 151.042Z" fill="#DC918B"/>
<path d="M151.728 166.493C151.293 166.391 150.863 166.405 150.438 166.4C150.013 166.396 149.598 166.415 149.182 166.43C148.767 166.449 148.357 166.459 147.946 166.464C147.536 166.459 147.135 166.459 146.71 166.337C147.008 166.673 147.472 166.834 147.897 166.917C148.332 167.004 148.772 167.024 149.202 167.014C149.637 166.99 150.062 166.946 150.482 166.853C150.907 166.771 151.317 166.634 151.728 166.493Z" fill="#DC918B"/>
<path d="M186.496 82.479C186.496 82.479 184.454 70.9188 176.553 74.8631C168.653 78.8122 175.136 98.4948 186.438 96.9366C186.438 96.9366 188.69 93.0069 186.496 82.479Z" fill="#F7AB8D"/>
<path d="M196.009 140.811C191.9 142.72 188.807 150.039 180.355 164.934C182.422 168.109 188.006 170.325 192.233 175.024L199.317 164.102L196.009 140.811Z" fill="#16a34a"/>
<path d="M239.104 213.532L238.859 205.293L188.823 203.545V213.742C212.832 217.822 239.104 213.532 239.104 213.532Z" fill="#2B2E3A"/>
<path d="M205.224 207.771H210.711C211.883 207.771 212.836 208.721 212.836 209.89V213.347C212.836 214.516 211.883 215.465 210.711 215.465H205.224" stroke="#545B72" stroke-width="4.0989" stroke-miterlimit="10" stroke-linejoin="round" fill="#000000"/>
<path d="M240.764 147.531C239.787 141.6 234.608 137.285 228.579 137.32C225.315 137.334 221.24 134.904 217.195 135.45C211.434 136.287 200.138 139.014 196.014 140.816C189.169 155.838 191.817 187.626 187.591 209.052C197.314 210.036 223.732 212.266 239.421 208.955C234.72 173.067 244.429 169.789 240.764 147.531Z" fill="#16a34a"/>
<path d="M227.476 135.07L226.587 122.745L207.981 126.324C207.981 126.324 209.325 133.025 209.364 137.821C209.364 137.821 209.32 138.98 209.422 140.539C210.649 141.069 211.963 141.415 213.302 141.376C216.385 141.284 223.078 137.656 227.476 135.07Z" fill="#DC918B"/>
<path d="M213.295 141.376C211.957 141.415 210.642 141.069 209.416 140.539C209.582 143.11 210.134 146.776 211.913 148.13C223.922 147.078 227.597 136.789 227.597 136.789L227.474 135.07C223.077 137.656 216.383 141.284 213.295 141.376Z" fill="#FAC2A8"/>
<path d="M185.852 31.7C177.604 31.8461 176.783 41.6094 175.889 45.8362C173.202 58.5699 178.337 80.434 178.415 86.219C178.415 86.2239 199.317 31.4614 185.852 31.7Z" fill="#2B2E3A"/>
<path d="M182.887 35.2646C182.887 35.2646 175.734 108.19 177.844 113.566C179.955 118.947 195.756 128.253 205.108 130.449C214.459 132.65 234.511 120.793 237.775 117.209C239.529 115.28 244.4 97.8086 248.255 79.957C251.563 64.6472 261.819 51.9183 261.037 45.6269C261.032 45.6221 219.594 18.5768 182.887 35.2646Z" fill="#FAC2A8"/>
<path d="M186.598 73.4413C187.307 72.4576 188.01 71.4935 188.787 70.617C189.183 70.1884 189.579 69.7648 190.018 69.4191C190.448 69.0685 190.917 68.7714 191.396 68.6399C192.349 68.3283 193.292 68.9175 194.015 69.7989C194.748 70.6705 195.31 71.7321 195.911 72.7839C195.686 71.5909 195.32 70.4124 194.631 69.346C194.294 68.8104 193.829 68.3185 193.229 67.9582C192.623 67.6027 191.816 67.5102 191.132 67.705C189.774 68.153 188.904 69.1561 188.196 70.1495C187.488 71.1721 186.95 72.2775 186.598 73.4413Z" fill="#2B2E3A"/>
<path d="M214.439 74.2204C215.299 73.1978 216.198 72.2288 217.205 71.4448C218.197 70.6705 219.384 70.1057 220.454 70.4125C220.991 70.5439 221.48 70.8848 221.91 71.3133C222.139 71.5081 222.325 71.7711 222.53 71.9999C222.701 72.2677 222.907 72.5064 223.073 72.7839C223.762 73.8698 224.319 75.0677 224.915 76.2656C224.709 74.9411 224.343 73.6409 223.737 72.409C223.6 72.0924 223.405 71.8051 223.229 71.5032C223.014 71.2208 222.833 70.9238 222.574 70.6657C222.091 70.1398 221.465 69.6723 220.708 69.4629C219.951 69.2633 219.135 69.3704 218.46 69.6577C217.781 69.9547 217.205 70.3784 216.711 70.8605C215.714 71.8392 214.957 72.9836 214.439 74.2204Z" fill="#2B2E3A"/>
<path d="M241.482 84.4122C241.482 84.4122 240.373 88.1958 238.512 91.9064C233.943 100.998 219.11 89.8758 198.095 92.8218C192.574 93.5961 190.591 95.1105 184.752 95.7874C176.91 96.6931 179.05 81.3103 179.021 78.4617C177.643 96.0114 174.101 108.94 177.301 115.971C179.651 121.138 195.408 131.393 208.708 131.642C219.764 131.851 236.528 124.44 239.733 120.919C241.287 119.21 244.736 105.122 248.288 89.5252L251.391 79.533L241.482 84.4122Z" fill="#2B2E3A"/>
<path d="M188.875 98.9139C188.875 98.9139 202.575 108.57 223.35 98.7678C223.35 98.7678 215.073 117.657 202.644 116.79C189.921 114.564 196.497 107.304 188.875 98.9139Z" fill="#31374C"/>
<path d="M214.522 111.599C205.053 110.201 199.737 112.456 196.874 114.749C198.154 115.626 199.972 116.322 202.649 116.79C207.247 117.111 211.273 114.73 214.522 111.599Z" fill="#F97A7A"/>
<path d="M188.875 98.9139C191.181 101.456 191.528 102.605 192.041 103.852C197.533 106.111 206.225 108.804 219.856 105.04C222.822 100.915 223.355 98.7678 223.355 98.7678C202.575 108.57 188.875 98.9139 188.875 98.9139Z" fill="#ffffff"/>
<path d="M188.875 98.9139C190.112 99.7563 191.465 100.419 192.853 100.988C194.24 101.553 195.672 102.016 197.133 102.381C197.861 102.561 198.598 102.717 199.336 102.848C200.079 102.97 200.821 103.082 201.569 103.155C202.317 103.233 203.069 103.296 203.817 103.316C204.569 103.355 205.321 103.345 206.074 103.34C206.826 103.306 207.579 103.296 208.326 103.219C209.079 103.17 209.821 103.068 210.569 102.975C211.312 102.868 212.054 102.741 212.797 102.6C213.535 102.444 214.272 102.293 214.996 102.094C215.728 101.913 216.447 101.699 217.165 101.475C217.888 101.271 218.592 100.993 219.305 100.755C220.013 100.501 220.707 100.204 221.406 99.9365L223.468 99.0259L223.096 98.6655C222.603 99.7466 222.041 100.818 221.455 101.865C220.864 102.912 220.238 103.939 219.579 104.937C218.254 106.939 216.798 108.862 215.142 110.591C213.486 112.315 211.629 113.873 209.518 114.988C207.417 116.103 205.038 116.712 202.663 116.561L202.688 116.566C202.194 116.464 201.696 116.395 201.212 116.269C200.724 116.162 200.24 116.03 199.761 115.879C199.287 115.723 198.813 115.563 198.364 115.353C198.134 115.261 197.914 115.144 197.694 115.027C197.47 114.915 197.265 114.784 197.059 114.647C196.639 114.384 196.268 114.063 195.916 113.722C195.579 113.367 195.266 112.982 195.017 112.558C194.499 111.716 194.172 110.766 193.903 109.802C193.375 107.869 192.98 105.858 192.178 103.988C191.983 103.52 191.763 103.063 191.528 102.61C191.294 102.162 191.03 101.728 190.756 101.3C190.468 100.881 190.185 100.462 189.862 100.073C189.559 99.6589 189.208 99.2937 188.875 98.9139ZM188.875 98.9139C189.198 99.3034 189.535 99.6833 189.823 100.097C190.131 100.496 190.405 100.925 190.678 101.344C190.942 101.772 191.191 102.211 191.416 102.663C191.636 103.116 191.846 103.574 192.027 104.041C192.393 104.976 192.677 105.945 192.916 106.919C193.16 107.898 193.351 108.887 193.61 109.87C193.864 110.849 194.186 111.838 194.719 112.729C194.973 113.182 195.3 113.586 195.652 113.97C196.019 114.336 196.409 114.681 196.844 114.964C197.059 115.11 197.274 115.251 197.504 115.368C197.729 115.495 197.958 115.616 198.193 115.719C198.657 115.943 199.141 116.113 199.629 116.283C200.118 116.439 200.611 116.585 201.11 116.702C201.603 116.839 202.111 116.916 202.61 117.024H202.615H202.634C205.106 117.228 207.598 116.58 209.768 115.441C211.952 114.302 213.857 112.714 215.553 110.966C217.248 109.208 218.738 107.275 220.072 105.244C220.737 104.227 221.367 103.184 221.958 102.128C222.549 101.066 223.106 99.99 223.609 98.8749L223.907 98.2175L223.238 98.5146L221.201 99.4252C220.507 99.6979 219.828 99.9949 219.124 100.248C218.421 100.492 217.727 100.764 217.013 100.974C216.305 101.203 215.592 101.417 214.869 101.597C214.155 101.801 213.422 101.948 212.699 102.113C211.971 102.269 211.238 102.4 210.505 102.517C209.768 102.624 209.035 102.732 208.292 102.795C207.554 102.883 206.807 102.907 206.064 102.951C205.321 102.965 204.574 102.985 203.831 102.956C203.089 102.946 202.341 102.892 201.603 102.829C200.861 102.766 200.123 102.668 199.385 102.556C198.647 102.439 197.914 102.303 197.186 102.147C195.73 101.821 194.299 101.392 192.901 100.867C191.514 100.326 190.141 99.7125 188.875 98.9139Z" fill="#494F66"/>
<path d="M219.955 97.6916C219.955 97.6916 220.453 97.643 221.167 97.7063C221.342 97.7209 221.533 97.7452 221.733 97.7842C221.934 97.8085 222.134 97.8864 222.344 97.9254C222.544 98.0082 222.759 98.0617 222.95 98.1737C223.048 98.2273 223.15 98.2662 223.248 98.3296L223.522 98.5243C223.717 98.6412 223.859 98.8214 224.025 98.9626C224.167 99.1379 224.303 99.3083 224.435 99.4739C224.538 99.6638 224.655 99.8391 224.758 100.01C224.841 100.195 224.924 100.37 224.997 100.531C225.075 100.691 225.144 100.842 225.183 100.983C225.232 101.125 225.276 101.246 225.315 101.344C225.393 101.548 225.442 101.66 225.442 101.66C225.442 101.66 225.437 101.539 225.432 101.319C225.408 101.105 225.432 100.784 225.325 100.423C225.281 100.238 225.237 100.039 225.168 99.8294C225.08 99.6297 224.987 99.4155 224.885 99.1963C224.753 98.9918 224.616 98.7776 224.455 98.5779C224.264 98.4026 224.098 98.1883 223.873 98.0471L223.541 97.828C223.429 97.7598 223.307 97.7111 223.189 97.6576C222.96 97.531 222.701 97.4969 222.471 97.4238C222.232 97.3897 221.997 97.341 221.777 97.3459C221.557 97.3313 221.347 97.3459 221.162 97.3703C220.404 97.453 219.955 97.6916 219.955 97.6916Z" fill="#494F66"/>
<path opacity="0.2" d="M217.908 81.4906C217.829 82.9465 220.194 84.271 223.18 84.4366C226.17 84.607 228.647 83.5601 228.725 82.0992C228.798 80.6384 226.438 79.3188 223.453 79.1532C220.463 78.9828 217.981 80.0297 217.908 81.4906Z" fill="#ffc0cb"/>
<path opacity="0.2" d="M182.04 78.0676C181.707 79.2947 183.476 80.8286 185.992 81.4908C188.513 82.158 190.825 81.7002 191.157 80.4682C191.489 79.2411 189.715 77.7072 187.199 77.0401C184.688 76.3779 182.377 76.8356 182.04 78.0676Z" fill="#ffc0cb"/>
<path d="M184.273 57.4159C186.54 55.5606 189.042 54.314 193.551 54.8886C195.818 55.4583 198.247 55.9161 196.561 53.2232C193.605 49.0549 183.652 51.8452 181.62 57.8493C180.437 60.4057 182.89 58.8816 184.273 57.4159Z" fill="#2B2E3A"/>
<path d="M229.434 61.6767C227.802 59.2468 225.77 57.3331 221.279 56.5832C218.944 56.476 216.486 56.2082 218.88 54.1192C222.916 50.9832 231.638 56.515 231.843 62.8551C232.248 65.6453 230.338 63.4784 229.434 61.6767Z" fill="#2B2E3A"/>
<path opacity="0.6" d="M210.408 64.3403C210.408 64.3403 203.578 67.5201 196.581 66.3466C196.581 66.3466 203.583 77.9603 194.045 90.8597C194.045 90.8597 202.537 96.07 209.812 90.996C209.817 90.9911 206.231 77.6974 210.408 64.3403Z" fill="url(#paint0_linear_2603_4015)"/>
<path d="M241.482 84.4125C241.482 84.4125 244.898 74.2304 240.393 64.0385C237.1 56.5882 243.622 46.6057 247.282 43.236C247.282 43.236 260.65 41.9991 261.324 42.6809C265.428 46.8345 270.055 58.9742 255.407 86.5892L241.482 84.4125Z" fill="#2B2E3A"/>
<path d="M245.934 89.6907C245.934 89.6907 250.815 80.1562 257.567 84.7141C264.32 89.2719 257.944 112.426 242.138 104.09C242.138 104.09 238.727 99.7316 245.934 89.6907Z" fill="#FAC2A8"/>
<path d="M255.623 93.3383C255.828 92.7734 255.926 92.155 255.887 91.5269C255.843 90.9036 255.633 90.2364 255.169 89.7154C254.71 89.1846 254.05 88.8778 253.405 88.7317C252.78 88.5759 251.993 88.5711 251.343 88.8437C250.679 89.0921 250.127 89.5157 249.667 89.9832C249.213 90.4604 248.837 90.9815 248.509 91.522C248.177 92.0576 247.918 92.6274 247.679 93.202C247.449 93.7814 247.234 94.3463 247.083 94.9745L246.941 95.5637L247.513 95.7C248.216 95.8705 248.959 96.148 249.594 96.4889C250.234 96.8249 250.796 97.307 250.874 97.8718C250.957 98.4513 250.498 99.133 249.97 99.6735C249.428 100.229 248.798 100.72 248.148 101.193C248.89 100.886 249.623 100.526 250.288 100.034C250.62 99.7855 250.942 99.508 251.206 99.1525C251.465 98.8019 251.685 98.349 251.685 97.828C251.685 97.307 251.441 96.8249 251.143 96.4694C250.845 96.1091 250.493 95.8315 250.131 95.588C249.394 95.1157 248.631 94.804 247.801 94.5459L248.231 95.2764C248.573 94.2148 249.037 93.124 249.599 92.1599C250.161 91.1957 250.874 90.3046 251.768 89.881C252.613 89.4768 253.859 89.6229 254.641 90.2364C255.438 90.9035 255.696 92.1599 255.623 93.3383Z" fill="#DC918B"/>
<path d="M194.05 90.8547C194.05 90.8547 202.679 104.363 209.817 90.9911C209.817 90.9911 201.785 92.9438 194.05 90.8547Z" fill="#DC918B"/>
<path d="M209.856 141.103C206.46 143.733 202.312 148.705 202.312 148.705C202.312 148.705 203.416 142.788 204.12 139.404C204.96 137.398 209.059 133.356 209.059 133.356C209.059 133.356 209.91 139.677 209.856 141.103Z" fill="#37bd1a"/>
<path d="M241.707 142.033C238.649 139.224 231.882 138.152 231.882 138.152C231.036 137.563 222.31 146.026 227.782 153.029C230.719 156.783 235.947 169.57 240.002 177.888C243.862 172.731 252.622 166.532 255.73 164.94C250.785 155.157 246.466 146.401 241.707 142.033Z" fill="#16a34a"/>
<path d="M223.5 163.826C223.325 163.811 223.196 163.865 223.036 164.058L221.148 166.33L220.603 163.97C220.546 163.733 220.399 163.643 220.257 163.637C220.041 163.628 219.929 163.708 219.804 163.9L218.084 166.906L218.948 166.954L220.116 164.881L220.648 167.053L221.371 167.095L223.071 165.062L222.945 167.184L223.687 167.228L223.85 164.257C223.863 163.965 223.685 163.842 223.5 163.826Z" fill="#16a34a"/>
<path d="M217.206 164.019L216.346 166.808L217.137 166.853L217.988 164.063L217.206 164.019Z" fill="#16a34a"/>
<path d="M215.809 164.748C215.876 164.374 215.68 163.93 214.889 163.885L213.36 163.796L212.509 166.587L213.291 166.631L213.611 165.584L214.012 165.604L214.645 166.705L215.5 166.752L214.786 165.579C215.493 165.458 215.748 165.119 215.809 164.748ZM214.319 165.144L213.762 165.111L214.02 164.268L214.611 164.3C214.924 164.316 215.078 164.475 215.033 164.739C214.982 165.018 214.7 165.167 214.319 165.144Z" fill="#16a34a"/>
<path d="M226.94 167.414L227.693 167.454L227.127 164.803C227.048 164.5 226.871 164.412 226.674 164.414C226.551 164.415 226.423 164.459 226.286 164.625L224.254 167.253L225.021 167.296L225.433 166.739L226.831 166.818L226.94 167.414ZM225.783 166.293L226.53 165.295L226.736 166.347L225.783 166.293Z" fill="#16a34a"/>
<path d="M230.102 167.068C229.468 167.022 229.127 166.645 229.202 166.193C229.305 165.582 229.89 165.241 230.675 165.295C230.904 165.311 231.205 165.345 231.471 165.429L231.643 164.87C231.424 164.806 231.047 164.744 230.798 164.726C229.45 164.648 228.56 165.219 228.402 166.137C228.261 166.949 228.811 167.57 230.057 167.642C230.306 167.655 230.528 167.646 230.836 167.617L231.023 167.006C230.726 167.065 230.487 167.097 230.102 167.068Z" fill="#16a34a"/>
<path d="M181.478 25.0337C188.133 20.1399 200.719 10.2401 214.214 12.2707C220.898 13.3907 225.569 14.6373 230.572 18.2602C230.127 17.0964 226.077 13.5368 226.409 12.782C226.82 11.8422 261.837 26.0027 261.324 42.6905C263 45.0717 263.879 46.854 263.84 47.6185C263.65 51.256 239.391 64.7981 242.005 56.1012C244.536 48.792 245.298 47.9788 242.64 45.5489C237.872 41.1664 228.867 39.652 207.471 42.8999C197.44 44.4241 166.747 41.4001 168.829 29.6743C168.833 29.6743 174.824 29.9276 181.478 25.0337Z" fill="#2B2E3A"/>
<path d="M208.835 138.552L212.622 147.531L224.079 138.508L226.757 141.356L211.821 153.394L207.809 142.861L208.835 138.552Z" fill="#37bd1a"/>
<path d="M227.822 133.034C227.822 133.034 223.278 139.165 217.586 143.621C218.348 145.281 225.257 149.717 225.257 149.717L233.006 137.359L227.822 133.034Z" fill="#37bd1a"/>
<path d="M231.247 161.346C231.481 161.604 231.623 161.935 231.784 162.247C231.945 162.558 232.092 162.88 232.243 163.191L233.138 165.095C233.729 166.366 234.339 167.632 234.975 168.884C235.287 169.512 235.659 170.116 236.01 170.72L236.563 171.621C236.655 171.772 236.753 171.918 236.836 172.073L237.071 172.546C237.706 173.802 238.385 175.039 239.191 176.217C238.815 174.839 238.302 173.52 237.755 172.224C237.462 171.587 237.232 170.91 236.958 170.252C236.685 169.595 236.406 168.947 236.084 168.319C235.424 167.068 234.73 165.836 233.949 164.647C233.558 164.053 233.157 163.464 232.717 162.899C232.502 162.612 232.273 162.339 232.038 162.067C231.809 161.809 231.569 161.521 231.247 161.346Z" fill="#37bd1a"/>
<path d="M192.702 154.051C191.886 157.251 191.412 160.513 191.094 163.79C190.791 167.067 190.635 170.374 190.918 173.661C191.026 172.015 191.162 170.384 191.299 168.747L191.773 163.854L192.281 158.96C192.443 157.333 192.579 155.697 192.702 154.051Z" fill="#37bd1a"/>
</g>
<defs fill="#000000">
<linearGradient id="paint0_linear_2603_4015" x1="208.557" y1="63.6673" x2="198.276" y2="92.6338" gradientUnits="userSpaceOnUse" fill="#000000">
<stop stop-color="#FAC2A8" fill="#000000"/>
<stop offset="0.2651" stop-color="#F7BCA5" fill="#000000"/>
<stop offset="0.6038" stop-color="#EDAD9B" fill="#000000"/>
<stop offset="0.981" stop-color="#DD938C" fill="#000000"/>
<stop offset="1" stop-color="#DC918B" fill="#000000"/>
</linearGradient>
</defs>
</svg>