<svg xmlns="http://www.w3.org/2000/svg" width="416" height="448" viewBox="0 0 416 448" fill="none">
<mask id="mask0_2603_4323" style="mask-type:alpha" maskUnits="userSpaceOnUse" x="0" y="40" width="320" height="353" fill="#000000">
<rect y="40" width="320" height="353" fill="#C4C4C4"/>
</mask>
<g mask="url(#mask0_2603_4323)">
<path d="M32 363.511H1022.06V367.368H32V363.511Z" fill="#E1E4F4"/>
<path d="M67.172 309.442C67.172 309.442 86.1464 318.004 105.121 317.078C124.095 316.152 127.566 309.442 127.566 309.442C127.566 309.442 100.184 300.803 67.172 309.442Z" fill="#D0D5F4"/>
<path d="M127.489 309.442C127.489 309.442 124.018 316.152 105.043 317.078C86.0688 318.004 67.0944 309.442 67.0944 309.442C47.5029 349.782 51.2052 374.695 75.5789 385.802H118.927C144.612 374.618 150.165 350.862 127.489 309.442Z" fill="#E1E4F4"/>
<path d="M127.489 316.229C119.93 328.802 92.317 325.717 70.4116 319.778C70.4116 319.778 121.473 340.912 127.489 316.229Z" fill="#D0D5F4"/>
<path d="M140.292 291.085C140.292 306.665 120.701 319.315 96.4811 319.315C72.2618 319.315 52.6702 306.665 52.6702 291.085V285.994C52.6702 270.413 72.2618 257.764 96.4811 257.764C120.701 257.764 140.292 270.413 140.292 285.994V291.085Z" fill="#D0D5F4"/>
<path d="M151.709 292.936C158.573 290.39 147.235 287.845 144.767 288.539C141.296 289.465 129.263 296.021 136.514 300.34C132.117 302.423 126.641 303.426 123.324 307.282C117.925 313.916 125.869 315.535 130.574 310.599C132.117 318.081 156.645 310.368 142.299 306.511C145.152 305.817 151.4 308.439 153.637 306.357C159.345 301.035 144.381 299.183 142.299 299.106C145.538 296.638 147.543 294.401 151.709 292.936C148.238 294.17 155.102 291.625 151.709 292.936Z" fill="#D0D5F4"/>
<path d="M123.555 313.607C126.409 312.913 132.656 315.613 134.893 313.453C140.601 308.131 125.637 306.28 123.555 306.202C126.794 303.657 128.8 301.42 132.965 299.955C136.359 298.644 129.494 301.189 132.965 299.955C139.83 297.409 128.491 294.864 126.023 295.558C122.552 296.484 110.519 303.04 117.77 307.359C113.373 309.442 107.897 310.445 104.58 314.301C99.1811 320.935 107.126 322.554 111.831 317.618C113.373 325.1 137.901 317.387 123.555 313.607Z" fill="#E1E4F4"/>
<path d="M141.99 275.735C146.85 271.416 136.668 272.959 134.817 274.347C132.272 276.198 124.482 285.608 131.809 286.765C128.878 289.928 124.636 292.473 123.17 296.792C120.856 304.043 127.953 302.809 130.266 297.178C133.969 302.886 151.709 288.539 138.674 290.005C140.833 288.462 146.85 288.694 148.007 286.225C150.938 279.978 137.98 283.294 136.283 283.911C138.134 280.749 139.059 278.281 141.99 275.735C139.522 277.895 144.382 273.576 141.99 275.735Z" fill="#E1E4F4"/>
<path d="M137.594 272.341C141.99 266.479 129.649 267.482 127.489 267.791C129.803 266.094 133.351 259.692 129.572 257.069C126.487 254.91 123.17 262.546 121.164 264.088C118.696 259.152 114.917 253.676 109.595 251.593C104.504 249.665 96.7137 254.216 102.344 260C107.204 265.014 113.837 265.631 118.388 272.341C121.627 277.124 123.787 269.565 125.638 268.793C121.01 274.578 134.277 276.815 137.594 272.341C136.282 274.116 138.365 271.339 137.594 272.341Z" fill="#D0D5F4"/>
<path d="M58.7644 301.42C51.8997 298.875 63.238 296.329 65.7063 297.024C69.1772 297.949 81.2098 304.505 73.9594 308.825C78.3559 310.907 83.8323 311.91 87.1489 315.767C92.5482 322.4 84.6036 324.02 79.8985 319.083C78.3559 326.565 53.828 318.852 68.1745 314.995C65.3207 314.301 59.0729 316.924 56.8361 314.841C51.1283 309.519 66.092 307.668 68.1745 307.591C64.935 305.122 62.9295 302.886 58.7644 301.42C55.3706 300.186 62.2353 302.654 58.7644 301.42Z" fill="#E1E4F4"/>
<path d="M49.739 277.278C44.8797 272.958 55.061 274.501 56.9122 275.889C59.4575 277.741 67.2479 287.151 59.9204 288.308C62.8514 291.47 67.0937 294.015 68.5592 298.335C70.8731 305.585 63.7769 304.351 61.463 298.721C57.7607 304.428 40.0203 290.082 53.0556 291.547C50.8959 290.005 44.8797 290.236 43.7227 287.768C40.7917 281.52 53.7499 284.837 55.4468 285.454C53.5956 282.291 52.67 279.823 49.739 277.278C47.2708 275.118 52.2072 279.438 49.739 277.278Z" fill="#D0D5F4"/>
<path d="M54.0602 273.807C49.6637 267.945 62.0047 268.948 64.1644 269.256C61.8505 267.559 58.3024 261.157 62.0819 258.535C65.1672 256.375 68.4839 264.011 70.4893 265.554C72.9575 260.618 76.737 255.141 82.0591 253.059C87.1498 251.13 94.94 255.681 89.3094 261.466C84.4501 266.48 77.8168 267.097 73.266 273.807C70.0265 278.589 67.8668 271.03 66.0156 270.259C70.6435 276.121 57.454 278.281 54.0602 273.807C53.366 272.804 55.4485 275.658 54.0602 273.807Z" fill="#D0D5F4"/>
<path d="M73.7268 279.746C69.5617 273.73 66.6307 285.84 66.2451 287.999C65.3195 285.3 60.383 279.9 56.6807 282.677C53.6726 284.914 59.8431 290.467 60.7687 292.859C55.2923 293.707 48.9675 295.558 45.2652 299.955C41.7942 304.197 43.7226 313.067 50.9729 309.519C57.2978 306.434 59.8431 300.34 67.7105 298.104C73.264 296.484 66.7078 292.164 66.5535 290.082C70.7187 296.252 76.9664 284.374 73.7268 279.746C73.0326 278.821 75.0381 281.674 73.7268 279.746Z" fill="#F7F7FA"/>
<path d="M152.247 289.619C157.569 284.528 145.151 283.526 142.991 283.526C145.537 282.214 150.087 276.43 146.771 273.267C144.071 270.645 139.597 277.664 137.361 278.821C135.664 273.499 132.81 267.559 127.951 264.628C123.246 261.852 114.761 265.168 119.389 271.725C123.4 277.432 129.802 279.052 133.273 286.534C135.664 291.779 139.057 284.683 140.986 284.143C135.509 289.233 148.236 293.553 152.247 289.619C150.627 291.239 153.173 288.771 152.247 289.619Z" fill="#F7F7FA"/>
<path d="M83.1369 291.933C90.0017 289.388 78.6633 286.842 76.1951 287.537C72.7241 288.462 60.6916 295.018 67.942 299.338C63.5455 301.42 58.0692 302.423 54.7525 306.28C49.3533 312.913 57.2979 314.533 62.0029 309.596C63.5455 317.078 88.0734 309.365 73.7269 305.508C76.5808 304.814 82.8284 307.437 85.0652 305.354C90.773 300.032 75.8095 298.181 73.7269 298.104C76.9664 295.635 79.049 293.399 83.1369 291.933C79.666 293.167 86.5307 290.699 83.1369 291.933Z" fill="#E1E4F4"/>
<path d="M95.6328 320.24C101.649 324.405 97.1754 313.684 95.2471 312.064C92.5475 309.75 80.2064 303.734 80.8234 312.064C76.5812 309.673 72.6475 305.74 67.5568 305.354C58.9951 304.737 62.3118 312.141 69.0223 313.221C63.7773 318.775 84.2172 334.355 79.1265 320.472C81.3634 322.4 82.7517 329.033 85.7599 329.65C93.3959 331.193 86.2998 317.926 85.1429 316.152C89.0766 317.309 92.0076 317.695 95.6328 320.24C92.5475 318.081 98.6409 322.246 95.6328 320.24Z" fill="#F7F7FA"/>
<path d="M96.4044 302.577C94.1676 298.258 83.8319 304.274 85.3746 308.516C87.5342 314.995 98.4099 306.434 96.4044 302.577C95.6331 301.112 97.0215 303.734 96.4044 302.577Z" fill="#E1E4F4"/>
<path d="M102.653 299.569C100.493 300.032 93.7825 303.734 100.262 305.662C107.281 307.822 107.975 298.721 102.653 299.569C101.496 299.878 106.818 298.875 102.653 299.569Z" fill="#F7F7FA"/>
<path d="M128.029 289.696C129.109 291.624 134.508 297.024 134.585 290.313C134.662 282.908 125.638 284.837 128.029 289.696C126.178 285.917 128.569 290.699 128.029 289.696Z" fill="#F7F7FA"/>
<path d="M114.222 288.231C114.916 289.465 118.387 292.936 118.464 288.616C118.464 283.911 112.68 285.068 114.222 288.231C112.988 285.763 114.608 288.925 114.222 288.231Z" fill="#F7F7FA"/>
<path d="M172.302 350.245C172.302 350.245 157.955 385.185 170.219 378.629L188.268 351.401C188.268 351.479 177.778 345.385 172.302 350.245Z" fill="#D0D5F4"/>
<path d="M254.755 352.096C254.755 352.096 240.023 392.282 252.287 384.646L270.644 353.253C270.644 353.253 260.231 346.388 254.755 352.096Z" fill="#D0D5F4"/>
<path d="M414.805 311.293C414.805 311.293 419.201 284.22 402.31 276.969L386.112 271.185C386.112 271.185 359.579 255.912 353.177 244.266C351.325 240.872 350.631 237.015 348.086 233.621C342.224 225.754 333.662 224.443 324.329 223.748C298.49 221.82 272.343 220.663 246.426 220.278C221.898 219.969 197.216 221.126 172.765 224.134C157.262 226.062 143.918 231.462 144.612 232.541L247.583 353.099C259.77 352.636 269.489 354.333 281.675 353.87C305.046 352.944 330.886 351.402 354.257 350.553C369.76 350.09 386.42 350.862 401.77 348.702C410.331 347.545 413.802 339.292 413.339 331.116L414.805 311.293Z" fill="#E1E4F4"/>
<path d="M342.532 290.313C337.287 289.311 331.888 288.694 326.566 288.077C323.866 287.845 321.166 287.614 318.544 287.459L314.533 287.228L310.522 287.074C299.724 286.688 288.925 286.92 278.204 287.537C275.504 287.691 272.805 287.999 270.182 288.154L266.171 288.462L262.161 288.925L254.139 289.851C251.439 290.236 248.817 290.622 246.117 291.085L242.106 291.702C240.795 291.933 239.484 292.164 238.095 292.396L230.151 293.861L228.145 294.247L226.14 294.71L222.206 295.635C219.584 296.252 216.961 296.87 214.339 297.487C219.661 296.638 224.906 295.558 230.228 294.71L238.173 293.476C239.484 293.244 240.795 293.013 242.183 292.859L246.194 292.396L254.216 291.393L262.238 290.545L266.249 290.159L270.259 289.851C272.959 289.619 275.581 289.388 278.281 289.233L286.303 288.771C289.002 288.616 291.702 288.616 294.325 288.462C297.024 288.308 299.724 288.308 302.346 288.308L306.357 288.231H310.368H314.379L318.39 288.385C321.089 288.462 323.789 288.616 326.411 288.694C331.811 289.311 337.21 289.696 342.532 290.313Z" fill="#D0D5F4"/>
<path d="M153.867 324.174C163.663 357.958 188.73 353.638 188.73 353.638L266.556 353.87C256.529 352.327 254.987 326.565 254.987 326.565C255.449 286.919 194.747 273.653 194.747 273.653C174.23 224.134 144.688 232.619 144.688 232.619C144.688 232.619 132.038 248.816 153.867 324.174Z" fill="#D0D5F4"/>
<path d="M153.867 324.174C163.663 357.958 188.731 353.638 188.731 353.638L266.557 353.87C256.53 352.327 254.987 326.565 254.987 326.565C255.45 286.919 194.747 273.653 194.747 273.653C174.23 224.134 144.689 232.619 144.689 232.619C144.689 232.619 132.039 248.816 153.867 324.174Z" fill="#D0D5F4"/>
<path d="M93.7829 147.234H167.984V56.7583H93.7829V147.234ZM163.433 142.606H98.488V61.3862H163.433V142.606Z" fill="#E1E4F4"/>
<path d="M107.281 72.8015H154.639V131.19H107.281V72.8015Z" fill="#E1E4F4"/>
</g>
<mask id="mask1_2603_4323" style="mask-type:alpha" maskUnits="userSpaceOnUse" x="192" y="0" width="224" height="448" fill="#000000">
<path d="M192 12C192 5.37259 197.373 0 204 0H404C410.627 0 416 5.37258 416 12V436C416 442.627 410.627 448 404 448H204C197.373 448 192 442.627 192 436V12Z" fill="#494F66"/>
</mask>
<g mask="url(#mask1_2603_4323)">
<path opacity="0.15" d="M386.851 425.7C382.647 424.14 368.995 423.863 368.995 423.863C365.47 421.406 365.185 420.9 360.886 421.096L298.062 420.964C290.231 421.324 273.073 428.088 270.372 435.414C267.626 442.861 278.792 448.349 286.75 447.983C286.75 447.983 347.868 445.444 368.152 443.435C387.732 441.496 396.812 429.395 386.851 425.7Z" fill="#001177"/>
<path d="M275.938 208.072L264.323 228.757C262.075 226.299 251.561 221.877 246.805 213.359C242.48 214.555 238.883 222.319 240.134 226.357C249.046 237.418 268.173 257.056 273.769 251.951C282.577 243.914 289.945 225.037 289.945 225.037L275.938 208.072Z" fill="#FFBEAF"/>
<path d="M245.197 218.34C245.197 218.34 251.581 217.748 250.63 206.037C250.428 203.579 249.223 199.352 249.079 197.987C248.936 196.621 249.131 191.783 250.226 190.294C251.327 188.805 252.037 187.726 251.151 186.633C250.265 185.541 245.685 184.832 243.633 189.273C241.581 193.714 242.649 197.447 242.649 197.447C242.649 197.447 239.001 192.908 237.138 192.908C236.33 192.908 227.933 192.381 226.167 194.482C225.496 195.275 223.777 212.78 224.024 213.632C224.272 214.49 232.35 228.152 240.285 226.787C243.913 226.162 245.197 218.762 245.197 218.34Z" fill="#FFBEAF"/>
<path d="M228.618 209.958C229.094 209.744 229.537 209.614 230.006 209.568L231.413 209.483C232.358 209.438 233.302 209.392 234.286 209.457C234.533 209.477 234.781 209.503 235.055 209.575C235.341 209.64 235.654 209.835 235.83 209.997C236.24 210.342 236.553 210.712 236.859 211.09C237.465 211.863 237.986 212.598 238.475 213.502C238.696 213.97 238.866 214.451 238.931 214.991C239.002 215.524 238.924 216.116 238.651 216.617C238.384 217.124 237.96 217.501 237.517 217.774C237.068 218.054 236.592 218.236 236.11 218.359C235.628 218.49 235.146 218.574 234.657 218.62C234.416 218.646 234.169 218.659 233.921 218.665C233.66 218.665 233.459 218.678 233.12 218.62C232.533 218.438 232.156 218.158 231.758 217.859C231.563 217.709 231.38 217.553 231.198 217.391C231.009 217.215 230.866 217.091 230.651 216.844L231.191 216.448C231.758 216.981 232.612 217.664 233.289 217.872C233.419 217.891 233.687 217.891 233.895 217.878C234.117 217.865 234.345 217.846 234.566 217.82C235.009 217.761 235.452 217.67 235.875 217.547C236.709 217.293 237.524 216.877 237.862 216.214C238.221 215.563 238.038 214.686 237.66 213.925C237.491 213.574 237.191 213.157 236.95 212.787C236.69 212.41 236.429 212.026 236.156 211.668C235.882 211.311 235.589 210.96 235.276 210.693C235.107 210.55 235.009 210.485 234.84 210.433C234.657 210.381 234.442 210.355 234.221 210.329C233.328 210.251 232.39 210.277 231.459 210.303C230.52 210.277 229.563 210.537 228.618 209.958Z" fill="#E3747B"/>
<path d="M229.016 204.509C230.501 204.151 231.941 204.327 233.4 204.405C234.129 204.457 234.859 204.509 235.602 204.6C235.98 204.658 236.331 204.685 236.768 204.841C237.243 205.01 237.537 205.341 237.81 205.647C238.318 206.291 238.618 207.006 238.859 207.721C239.1 208.443 239.263 209.178 239.354 209.932C239.452 210.68 239.452 211.447 239.341 212.214C239.217 213.014 238.95 213.691 238.598 214.386L237.96 214.074C238.097 213.762 238.208 213.43 238.305 213.099C238.416 212.761 238.475 212.436 238.52 212.104C238.592 211.428 238.546 210.732 238.462 210.043C238.266 208.677 237.849 207.26 237.081 206.219C236.885 205.985 236.664 205.751 236.442 205.679C236.195 205.575 235.817 205.523 235.478 205.465C234.774 205.361 234.058 205.289 233.335 205.224C231.895 205.081 230.436 205.088 229.016 204.509Z" fill="#E3747B"/>
<path d="M238.742 209.607C239.399 209.145 239.921 208.514 240.207 207.786C240.507 207.058 240.546 206.239 240.474 205.432C240.272 203.813 239.621 202.161 238.611 200.893C238.097 200.263 237.484 199.736 236.748 199.541C235.973 199.326 235.1 199.268 234.246 199.229C233.387 199.183 232.514 199.203 231.634 199.164C231.198 199.144 230.755 199.105 230.312 199.04C229.875 198.956 229.406 198.891 229.022 198.631C229.465 198.657 229.888 198.579 230.325 198.54C230.755 198.501 231.191 198.462 231.628 198.435C232.501 198.39 233.38 198.396 234.266 198.409C235.152 198.435 236.044 198.468 236.97 198.696C237.953 198.936 238.742 199.599 239.334 200.302C239.947 201.017 240.377 201.836 240.722 202.682C241.061 203.534 241.302 204.411 241.406 205.341C241.504 206.265 241.412 207.246 241.022 208.131C240.644 209.022 239.966 209.769 239.158 210.264L238.742 209.607Z" fill="#E3747B"/>
<path d="M241.139 195.672C241.777 196.088 242.337 196.576 242.728 197.304C243.106 198.039 243.132 198.917 242.963 199.671C242.8 200.419 242.559 201.18 242.005 201.83C241.725 202.148 241.347 202.402 240.924 202.519C240.52 202.649 240.057 202.63 239.731 202.61V201.895C240.135 201.908 240.415 201.914 240.709 201.823C240.995 201.739 241.243 201.576 241.445 201.342C241.849 200.874 242.083 200.204 242.2 199.534C242.324 198.865 242.298 198.221 242.051 197.623C241.836 197.005 241.354 196.433 241.139 195.672Z" fill="#E3747B"/>
<path d="M234.299 216.304C233.751 216.493 233.204 216.675 232.644 216.779C232.084 216.896 231.51 216.961 230.937 216.994C230.357 217.007 229.771 216.987 229.198 216.864C228.631 216.747 228.012 216.539 227.615 216.09C228.175 216.252 228.709 216.259 229.263 216.259C229.81 216.252 230.357 216.239 230.911 216.213C231.465 216.2 232.025 216.174 232.585 216.174C233.139 216.187 233.712 216.168 234.299 216.304Z" fill="#E3747B"/>
<path d="M362.588 208.248L373.337 229.29C375.585 226.832 388.438 221.877 393.194 213.359C397.52 214.555 401.116 222.319 399.865 226.357C390.953 237.418 376.823 256.237 368.478 251.269C358.23 245.163 350.054 225.037 350.054 225.037L362.588 208.248Z" fill="#FFBEAF"/>
<path d="M394.804 218.34C394.804 218.34 388.419 217.748 389.37 206.037C389.572 203.579 390.778 199.352 390.921 197.987C391.064 196.621 390.869 191.783 389.774 190.294C388.673 188.805 387.963 187.726 388.849 186.633C389.735 185.541 394.315 184.832 396.367 189.273C398.419 193.714 397.351 197.447 397.351 197.447C397.351 197.447 400.999 192.908 402.862 192.908C403.67 192.908 412.067 192.381 413.833 194.482C414.504 195.275 416.223 212.78 415.976 213.632C415.728 214.49 407.65 228.152 399.715 226.787C396.08 226.162 394.797 218.762 394.804 218.34Z" fill="#FFBEAF"/>
<path d="M411.377 209.958C410.432 210.537 409.474 210.277 408.543 210.29C407.611 210.264 406.673 210.238 405.781 210.316C405.559 210.335 405.344 210.368 405.162 210.42C404.986 210.465 404.895 210.537 404.725 210.68C404.419 210.947 404.126 211.298 403.846 211.655C403.566 212.013 403.312 212.397 403.051 212.774C402.803 213.144 402.504 213.561 402.341 213.912C401.963 214.666 401.781 215.55 402.139 216.201C402.478 216.87 403.299 217.287 404.126 217.534C404.549 217.664 404.986 217.755 405.435 217.807C405.657 217.839 405.885 217.859 406.106 217.865C406.315 217.878 406.582 217.878 406.712 217.859C407.39 217.651 408.243 216.968 408.81 216.435L409.351 216.831C409.136 217.085 408.992 217.202 408.803 217.378C408.621 217.54 408.439 217.696 408.243 217.846C407.846 218.145 407.468 218.425 406.882 218.607C406.549 218.665 406.341 218.652 406.08 218.652C405.833 218.646 405.592 218.633 405.344 218.607C404.856 218.561 404.374 218.477 403.891 218.347C403.409 218.216 402.934 218.034 402.484 217.761C402.041 217.488 401.611 217.111 401.351 216.604C401.077 216.103 400.999 215.511 401.071 214.978C401.136 214.439 401.299 213.957 401.527 213.489C402.015 212.585 402.536 211.85 403.142 211.077C403.448 210.7 403.761 210.329 404.172 209.984C404.354 209.822 404.667 209.627 404.947 209.562C405.22 209.497 405.468 209.464 405.716 209.445C406.699 209.379 407.644 209.425 408.588 209.471L409.996 209.555C410.458 209.614 410.901 209.737 411.377 209.958Z" fill="#E3747B"/>
<path d="M410.979 204.509C409.559 205.088 408.1 205.075 406.66 205.224C405.937 205.289 405.22 205.361 404.517 205.465C404.178 205.523 403.8 205.575 403.552 205.679C403.331 205.751 403.109 205.985 402.914 206.219C402.139 207.26 401.722 208.677 401.533 210.043C401.448 210.732 401.403 211.428 401.474 212.104C401.52 212.436 401.579 212.754 401.689 213.099C401.787 213.43 401.898 213.769 402.035 214.074L401.396 214.386C401.051 213.691 400.784 213.014 400.653 212.214C400.543 211.447 400.543 210.68 400.64 209.932C400.738 209.184 400.901 208.443 401.136 207.721C401.383 207.006 401.683 206.291 402.184 205.647C402.458 205.341 402.751 205.01 403.227 204.841C403.657 204.685 404.015 204.658 404.393 204.6C405.136 204.509 405.865 204.457 406.595 204.405C408.054 204.327 409.494 204.151 410.979 204.509Z" fill="#E3747B"/>
<path d="M400.829 210.257C400.021 209.763 399.344 209.015 398.966 208.124C398.575 207.24 398.484 206.252 398.582 205.335C398.686 204.405 398.927 203.527 399.266 202.675C399.611 201.83 400.048 201.004 400.653 200.295C401.246 199.593 402.034 198.93 403.018 198.689C403.943 198.461 404.836 198.435 405.722 198.403C406.608 198.39 407.487 198.383 408.36 198.429C408.797 198.455 409.233 198.494 409.663 198.533C410.099 198.572 410.523 198.65 410.966 198.624C410.582 198.884 410.106 198.949 409.676 199.034C409.233 199.099 408.79 199.138 408.354 199.157C407.474 199.196 406.608 199.177 405.741 199.222C404.888 199.268 404.015 199.326 403.24 199.534C402.504 199.729 401.891 200.256 401.376 200.887C400.367 202.155 399.715 203.8 399.513 205.426C399.435 206.232 399.481 207.051 399.78 207.78C400.067 208.508 400.595 209.139 401.246 209.6L400.829 210.257Z" fill="#E3747B"/>
<path d="M398.856 195.672C398.647 196.433 398.159 197.005 397.937 197.61C397.69 198.201 397.657 198.852 397.788 199.521C397.905 200.191 398.139 200.861 398.543 201.329C398.745 201.563 398.993 201.726 399.279 201.81C399.573 201.901 399.853 201.901 400.257 201.882V202.597C399.937 202.617 399.475 202.636 399.064 202.506C398.647 202.389 398.263 202.135 397.983 201.817C397.429 201.173 397.188 200.406 397.025 199.658C396.856 198.91 396.882 198.026 397.26 197.291C397.657 196.569 398.217 196.088 398.856 195.672Z" fill="#E3747B"/>
<path d="M405.695 216.304C406.275 216.168 406.849 216.187 407.415 216.181C407.982 216.174 408.536 216.2 409.09 216.22C409.643 216.246 410.19 216.259 410.738 216.265C411.285 216.259 411.819 216.259 412.386 216.096C411.988 216.545 411.37 216.76 410.803 216.87C410.223 216.987 409.637 217.013 409.063 217C408.484 216.968 407.917 216.909 407.357 216.786C406.79 216.675 406.243 216.493 405.695 216.304Z" fill="#E3747B"/>
<path d="M305.964 404.443V419.666L292.753 418.398L293.893 403.67L305.964 404.443Z" fill="#FFBEAF"/>
<path d="M349.43 405.328V420.557L335.052 419.744V403.67L349.43 405.328Z" fill="#FFBEAF"/>
<path d="M350.817 413.664C352.198 413.391 357.983 418.053 366.465 420.55C366.465 420.55 376.53 421.409 381.964 426.058C384.035 427.827 382.895 431.208 380.179 431.345C371.768 431.767 354.179 432.209 334.362 430.083C334.362 430.083 330.186 423.639 334.759 415.043C339.006 418.151 343.879 418.157 348.961 417.201C348.961 417.201 349.436 413.944 350.817 413.664Z" fill="#141938"/>
<path d="M306.212 415.517C305.436 416.551 304.511 417.039 303.417 416.883C302.681 416.792 307.052 412.279 298.29 411.668C291.971 411.226 292.981 415.693 292.753 415.296C292.551 414.939 292.029 414.204 292.029 414.204C284.486 426.422 277.873 428.223 278.492 433.881C279.111 439.538 281.912 445.195 292.277 443.413C302.635 441.625 306.511 436.56 306.98 432.983C307.449 429.413 306.212 415.517 306.212 415.517Z" fill="#141938"/>
<path d="M356.237 279.399L355.944 294.147C355.944 294.147 337.202 302.698 323.619 304.284C313.332 355.03 315.782 358.457 314.857 363.354C314.394 365.799 311.665 396.536 311.958 397.999C312.251 399.469 312.544 401.972 312.082 403.669C311.736 404.938 312.609 411.642 312.609 411.642C312.609 411.642 308.492 412.825 303.202 413.41C297.912 413.996 291.118 412.11 289.059 412.11C289.059 412.11 289.6 408.527 289.033 406.303C288.557 404.417 290.212 402.102 289.626 400.048C289.039 397.993 288.18 378.166 288.232 366.605C288.238 365.434 288.649 348.313 290.114 344.151C289.528 306.898 289.691 300.454 289.593 298.581C289.202 291.006 289.202 281.46 289.202 279.113C289.202 276.765 295.267 274.854 295.267 274.854L356.237 279.399Z" fill="#545D94"/>
<path d="M355.944 294.147C355.944 294.147 353.977 339.522 353.977 341.57C353.977 343.625 352.491 400.178 353.078 401.647C353.664 403.117 354.576 410.335 354.576 410.335C354.576 410.335 348.524 412.734 344.505 413.04C340.83 413.319 339.071 413.508 329.085 411.161C329.925 405.165 329.834 398.493 329.834 396.439C329.834 394.384 328.752 381.171 328.752 377.939C328.752 374.714 326.049 355.596 328.107 347.533C328.733 345.088 326.987 303.764 326.987 303.764C326.987 303.764 338.896 300.818 355.944 294.147Z" fill="#363D6B"/>
<path d="M325.397 278.957C325.41 280.407 325.384 281.85 325.371 283.3C325.365 284.75 325.312 286.194 325.28 287.638C325.221 290.531 325.123 293.418 325.006 296.312L324.57 295.857L329.462 295.844L329.013 296.267L329.371 289.998C329.495 287.911 329.651 285.823 329.807 283.736L329.827 283.476L330.068 283.456C331.26 283.365 332.459 283.248 333.651 283.17L333.475 283.391C333.384 281.772 333.267 280.16 333.195 278.541C333.443 280.14 333.651 281.746 333.873 283.352L333.899 283.541L333.697 283.574C332.511 283.743 331.319 283.886 330.133 284.042L330.394 283.769C330.335 285.862 330.283 287.956 330.192 290.044L329.912 296.319L329.892 296.748H329.462L324.57 296.735H324.114L324.14 296.28C324.296 293.392 324.479 290.505 324.694 287.618C324.798 286.175 324.882 284.731 325.019 283.294C325.137 281.837 325.247 280.394 325.397 278.957Z" fill="#363D6B"/>
<path d="M359.338 104.116C359.338 104.116 362.061 88.6785 372.595 93.9456C383.129 99.2192 374.484 125.503 359.416 123.422C359.416 123.422 356.413 118.174 359.338 104.116Z" fill="#FFA496"/>
<path d="M346.654 182.01C352.133 184.559 356.257 194.332 367.527 214.223C364.771 218.463 357.325 221.422 351.69 227.697L342.244 213.112L346.654 182.01Z" fill="#16a34a"/>
<path d="M289.195 279.119L289.521 268.117L356.237 265.782V279.399C324.224 284.848 289.195 279.119 289.195 279.119Z" fill="#141938"/>
<path d="M334.368 271.427H327.052C325.489 271.427 324.218 272.695 324.218 274.255V278.872C324.218 280.433 325.489 281.701 327.052 281.701H334.368" stroke="#7981B2" stroke-width="1.1" stroke-miterlimit="10" stroke-linejoin="round" fill="#000000"/>
<path d="M334.928 276.564H329.293" stroke="#7981B2" stroke-width="1.1" stroke-miterlimit="10" stroke-linejoin="round" fill="#000000"/>
<path d="M286.98 190.984C288.283 183.063 295.189 177.302 303.228 177.348C307.579 177.367 313.013 174.122 318.407 174.851C326.087 175.969 341.149 179.611 346.647 182.017C355.774 202.077 352.243 244.526 357.878 273.137C344.914 274.451 309.69 277.429 288.772 273.007C295.039 225.083 282.094 220.707 286.98 190.984Z" fill="#16a34a"/>
<path d="M304.701 174.343L305.886 157.885L330.694 162.665C330.694 162.665 328.902 171.612 328.85 178.017C328.85 178.017 328.909 179.565 328.772 181.646C327.137 182.354 325.385 182.816 323.6 182.764C319.489 182.641 310.564 177.796 304.701 174.343Z" fill="#E3747B"/>
<path d="M323.606 182.764C325.391 182.816 327.144 182.354 328.779 181.646C328.557 185.079 327.821 189.975 325.45 191.783C309.437 190.379 304.538 176.639 304.538 176.639L304.701 174.343C310.564 177.796 319.489 182.641 323.606 182.764Z" fill="#FFBEAF"/>
<path d="M360.198 36.3067C371.195 36.5018 372.289 49.5394 373.481 55.1837C377.064 72.1879 370.217 101.384 370.113 109.11C370.113 109.116 342.244 35.9881 360.198 36.3067Z" fill="#141938"/>
<path d="M364.152 41.0666C364.152 41.0666 373.689 138.449 370.875 145.628C368.061 152.813 346.993 165.24 334.524 168.172C322.055 171.112 295.319 155.278 290.967 150.492C288.629 147.917 282.134 124.586 276.994 100.747C272.583 80.3031 258.909 63.3054 259.952 54.9041C259.958 54.8976 315.208 18.7823 364.152 41.0666Z" fill="#FFBEAF"/>
<path d="M359.202 92.0468C358.257 90.7332 357.319 89.4457 356.283 88.2753C355.755 87.703 355.228 87.1373 354.641 86.6756C354.068 86.2074 353.443 85.8108 352.804 85.6352C351.534 85.2191 350.277 86.0059 349.312 87.1828C348.335 88.3468 347.586 89.7644 346.785 91.1689C347.084 89.5758 347.573 88.0022 348.492 86.5781C348.941 85.8628 349.56 85.206 350.361 84.7249C351.169 84.2502 352.244 84.1266 353.156 84.3867C354.967 84.985 356.127 86.3245 357.071 87.651C358.016 89.0166 358.733 90.4926 359.202 92.0468Z" fill="#141938"/>
<path d="M322.081 93.087C320.935 91.7215 319.736 90.4275 318.394 89.3806C317.071 88.3467 315.488 87.5924 314.062 88.002C313.345 88.1776 312.694 88.6328 312.12 89.205C311.814 89.4651 311.567 89.8163 311.293 90.1219C311.065 90.4795 310.791 90.7981 310.57 91.1688C309.651 92.6189 308.909 94.2185 308.114 95.8181C308.388 94.0494 308.876 92.3132 309.684 90.6681C309.866 90.2454 310.127 89.8618 310.361 89.4586C310.648 89.0815 310.889 88.6848 311.234 88.3402C311.879 87.6379 312.713 87.0137 313.723 86.734C314.733 86.4674 315.821 86.6105 316.72 86.9941C317.625 87.3908 318.394 87.9565 319.052 88.6003C320.381 89.9073 321.391 91.4354 322.081 93.087Z" fill="#141938"/>
<path d="M286.023 106.697C286.023 106.697 287.502 111.75 289.984 116.705C296.075 128.845 315.854 113.993 343.873 117.927C351.234 118.961 353.879 120.983 361.664 121.887C372.12 123.097 369.266 102.555 369.305 98.751C371.143 122.186 375.866 139.451 371.599 148.84C368.465 155.74 347.456 169.434 329.723 169.766C314.981 170.045 292.629 160.148 288.356 155.447C286.284 153.164 281.685 134.353 276.949 113.525L272.812 100.182L286.023 106.697Z" fill="#141938"/>
<path d="M356.166 126.062C356.166 126.062 337.899 138.956 310.199 125.866C310.199 125.866 321.235 151.09 337.808 149.932C354.772 146.961 346.003 137.265 356.166 126.062Z" fill="#141938"/>
<path d="M321.97 143.001C334.595 141.134 341.683 144.145 345.501 147.208C343.794 148.378 341.371 149.308 337.801 149.932C331.67 150.362 326.302 147.182 321.97 143.001Z" fill="#FF6166"/>
<path d="M356.166 126.062C353.091 129.456 352.629 130.99 351.945 132.655C344.622 135.672 333.033 139.268 314.857 134.242C310.903 128.734 310.193 125.866 310.193 125.866C337.899 138.956 356.166 126.062 356.166 126.062Z" fill="#ffffff"/>
<path d="M356.166 126.062C354.517 127.187 352.713 128.071 350.863 128.832C349.013 129.586 347.104 130.204 345.156 130.692C344.185 130.932 343.202 131.14 342.218 131.316C341.228 131.478 340.237 131.628 339.241 131.725C338.244 131.829 337.241 131.914 336.244 131.94C335.241 131.992 334.238 131.979 333.234 131.973C332.231 131.927 331.228 131.914 330.231 131.81C329.228 131.745 328.238 131.608 327.241 131.485C326.251 131.342 325.26 131.173 324.27 130.984C323.287 130.776 322.303 130.574 321.339 130.308C320.362 130.067 319.404 129.781 318.446 129.482C317.482 129.209 316.544 128.838 315.593 128.52C314.648 128.182 313.723 127.785 312.792 127.427L310.042 126.211L310.538 125.73C311.196 127.174 311.945 128.604 312.726 130.002C313.515 131.4 314.349 132.772 315.228 134.105C316.994 136.778 318.935 139.346 321.143 141.655C323.352 143.957 325.827 146.038 328.642 147.527C331.443 149.016 334.615 149.829 337.781 149.627L337.749 149.634C338.407 149.497 339.071 149.406 339.716 149.237C340.368 149.094 341.013 148.918 341.651 148.717C342.283 148.509 342.915 148.294 343.514 148.014C343.82 147.891 344.114 147.735 344.407 147.579C344.706 147.429 344.98 147.254 345.254 147.072C345.814 146.72 346.309 146.291 346.778 145.836C347.228 145.361 347.645 144.848 347.977 144.282C348.667 143.157 349.104 141.889 349.462 140.601C350.166 138.02 350.693 135.334 351.762 132.837C352.022 132.213 352.315 131.602 352.628 130.997C352.941 130.399 353.293 129.82 353.657 129.248C354.042 128.689 354.42 128.13 354.85 127.609C355.254 127.057 355.723 126.569 356.166 126.062ZM356.166 126.062C355.736 126.582 355.286 127.089 354.902 127.642C354.491 128.175 354.127 128.747 353.762 129.306C353.41 129.879 353.078 130.464 352.778 131.069C352.485 131.673 352.205 132.285 351.964 132.909C351.475 134.157 351.097 135.451 350.778 136.752C350.452 138.059 350.198 139.379 349.853 140.692C349.514 142 349.084 143.32 348.374 144.509C348.035 145.114 347.599 145.654 347.13 146.168C346.641 146.655 346.12 147.117 345.54 147.494C345.254 147.689 344.967 147.878 344.661 148.034C344.361 148.203 344.055 148.366 343.742 148.502C343.123 148.801 342.478 149.029 341.827 149.256C341.176 149.464 340.518 149.66 339.853 149.816C339.195 149.998 338.518 150.102 337.853 150.245H337.847H337.821C334.524 150.518 331.202 149.653 328.309 148.131C325.397 146.61 322.857 144.49 320.596 142.156C318.336 139.808 316.349 137.227 314.57 134.515C313.684 133.156 312.844 131.764 312.055 130.353C311.267 128.936 310.525 127.499 309.854 126.01L309.456 125.132L310.349 125.528L313.065 126.744C313.99 127.109 314.896 127.505 315.834 127.843C316.772 128.169 317.697 128.533 318.648 128.812C319.593 129.118 320.544 129.404 321.508 129.645C322.459 129.918 323.436 130.113 324.401 130.334C325.371 130.542 326.348 130.718 327.326 130.874C328.309 131.017 329.286 131.16 330.277 131.244C331.26 131.361 332.257 131.394 333.247 131.452C334.238 131.472 335.234 131.498 336.225 131.459C337.215 131.446 338.211 131.374 339.195 131.29C340.185 131.205 341.169 131.075 342.153 130.926C343.136 130.77 344.114 130.587 345.084 130.379C347.026 129.944 348.934 129.372 350.798 128.669C352.648 127.947 354.478 127.128 356.166 126.062Z" fill="#545D94"/>
<path d="M314.726 124.429C314.726 124.429 314.062 124.364 313.111 124.449C312.876 124.468 312.622 124.501 312.355 124.553C312.088 124.585 311.821 124.69 311.541 124.742C311.274 124.852 310.987 124.924 310.733 125.073C310.603 125.145 310.466 125.197 310.335 125.281L309.971 125.541C309.71 125.697 309.521 125.938 309.3 126.127C309.111 126.361 308.928 126.588 308.752 126.809C308.616 127.063 308.459 127.297 308.322 127.525C308.212 127.772 308.101 128.006 308.003 128.22C307.899 128.435 307.808 128.637 307.756 128.825C307.691 129.014 307.632 129.176 307.58 129.306C307.476 129.579 307.41 129.729 307.41 129.729C307.41 129.729 307.417 129.566 307.423 129.274C307.456 128.988 307.423 128.559 307.567 128.077C307.625 127.83 307.684 127.564 307.775 127.284C307.892 127.017 308.016 126.731 308.153 126.439C308.329 126.166 308.511 125.88 308.726 125.613C308.98 125.379 309.202 125.093 309.502 124.904L309.945 124.611C310.094 124.52 310.257 124.455 310.414 124.384C310.72 124.215 311.065 124.169 311.371 124.072C311.69 124.026 312.003 123.961 312.296 123.968C312.589 123.948 312.87 123.968 313.117 124C314.127 124.111 314.726 124.429 314.726 124.429Z" fill="#545D94"/>
<path opacity="0.2" d="M317.456 102.795C317.561 104.74 314.408 106.508 310.427 106.729C306.44 106.957 303.137 105.559 303.033 103.608C302.935 101.657 306.082 99.8953 310.062 99.6742C314.049 99.4466 317.359 100.845 317.456 102.795Z" fill="#ffc0cb"/>
<path opacity="0.2" d="M365.28 98.2243C365.723 99.863 363.365 101.911 360.01 102.796C356.648 103.686 353.567 103.075 353.124 101.43C352.681 99.7914 355.046 97.7431 358.401 96.8523C361.749 95.9679 364.83 96.5792 365.28 98.2243Z" fill="#ffc0cb"/>
<path d="M362.303 70.6468C359.28 68.1693 355.944 66.5047 349.931 67.272C346.909 68.0328 343.671 68.644 345.919 65.0481C349.86 59.4819 363.13 63.2079 365.84 71.2255C367.417 74.6394 364.146 72.6041 362.303 70.6468Z" fill="#141938"/>
<path d="M302.088 76.3365C304.263 73.0917 306.973 70.5362 312.96 69.5348C316.074 69.3918 319.351 69.0341 316.159 66.2445C310.778 62.0569 299.15 69.4438 298.876 77.9101C298.335 81.6361 300.882 78.7425 302.088 76.3365Z" fill="#141938"/>
<path opacity="0.6" d="M327.456 79.8933C327.456 79.8933 336.563 84.1395 345.892 82.5724C345.892 82.5724 336.556 98.081 349.273 115.306C349.273 115.306 337.951 122.264 328.25 115.488C328.244 115.482 333.026 97.7299 327.456 79.8933Z" fill="url(#paint0_linear_2603_4323)"/>
<path d="M286.023 106.697C286.023 106.697 281.469 93.1003 287.476 79.4904C291.867 69.5414 283.17 56.2111 278.29 51.7114C278.29 51.7114 260.466 50.0597 259.567 50.9701C254.095 56.5168 247.926 72.7277 267.456 109.604L286.023 106.697Z" fill="#141938"/>
<path d="M280.088 113.746C280.088 113.746 273.58 101.014 264.577 107.1C255.574 113.186 264.076 144.106 285.15 132.974C285.15 132.974 289.697 127.154 280.088 113.746Z" fill="#FFBEAF"/>
<path d="M267.17 118.616C266.896 117.862 266.766 117.036 266.818 116.197C266.876 115.365 267.157 114.474 267.775 113.778C268.388 113.069 269.267 112.66 270.127 112.465C270.961 112.257 272.01 112.25 272.876 112.614C273.762 112.946 274.498 113.512 275.111 114.136C275.717 114.773 276.218 115.469 276.655 116.191C277.098 116.906 277.443 117.667 277.762 118.434C278.068 119.208 278.355 119.962 278.557 120.801L278.746 121.588L277.984 121.77C277.046 121.998 276.055 122.368 275.209 122.823C274.355 123.272 273.606 123.916 273.502 124.67C273.391 125.444 274.003 126.354 274.707 127.076C275.43 127.817 276.27 128.474 277.137 129.105C276.147 128.695 275.169 128.214 274.283 127.557C273.84 127.226 273.411 126.855 273.059 126.38C272.713 125.912 272.42 125.307 272.42 124.612C272.42 123.916 272.746 123.272 273.143 122.797C273.541 122.316 274.01 121.945 274.492 121.62C275.476 120.99 276.492 120.573 277.599 120.229L277.026 121.204C276.57 119.787 275.951 118.33 275.202 117.043C274.453 115.755 273.502 114.565 272.31 113.999C271.183 113.46 269.521 113.655 268.479 114.474C267.417 115.365 267.072 117.043 267.17 118.616Z" fill="#E3747B"/>
<path d="M349.266 115.3C349.266 115.3 337.762 133.338 328.244 115.482C328.244 115.482 338.954 118.09 349.266 115.3Z" fill="#E3747B"/>
<path d="M328.192 182.4C332.72 185.911 338.25 192.551 338.25 192.551C338.25 192.551 336.778 184.65 335.84 180.131C334.72 177.452 329.254 172.054 329.254 172.054C329.254 172.054 328.12 180.495 328.192 182.4Z" fill="#13cc17"/>
<path d="M285.724 183.642C289.802 179.89 298.825 178.459 298.825 178.459C299.952 177.673 311.587 188.974 304.29 198.325C300.375 203.338 293.405 220.414 287.997 231.52C282.851 224.634 271.17 216.356 267.027 214.23C273.62 201.166 279.379 189.475 285.724 183.642Z" fill="#16a34a"/>
<path d="M341.671 209.073C341.436 209.08 341.273 209.171 341.091 209.451L338.928 212.747L337.853 209.698C337.742 209.392 337.534 209.295 337.345 209.308C337.058 209.327 336.921 209.451 336.785 209.724L334.954 213.97L336.107 213.905L337.345 210.979L338.374 213.781L339.338 213.729L341.286 210.777L341.436 213.612L342.426 213.56L342.198 209.594C342.172 209.204 341.918 209.067 341.671 209.073Z" fill="#16a34a"/>
<path d="M333.358 210.27L332.635 214.1L333.691 214.041L334.401 210.211L333.358 210.27Z" fill="#16a34a"/>
<path d="M331.619 211.447C331.651 210.94 331.326 210.381 330.27 210.439L328.231 210.55L327.521 214.38L328.563 214.321L328.831 212.884L329.365 212.852L330.368 214.217L331.508 214.152L330.388 212.702C331.306 212.435 331.593 211.948 331.619 211.447ZM329.703 212.195L328.961 212.234L329.176 211.076L329.964 211.031C330.381 211.005 330.609 211.193 330.589 211.551C330.563 211.928 330.212 212.169 329.703 212.195Z" fill="#16a34a"/>
<path d="M346.766 213.32L347.769 213.261L346.622 209.828C346.472 209.438 346.225 209.347 345.964 209.379C345.801 209.399 345.638 209.477 345.482 209.717L343.182 213.508L344.205 213.45L344.668 212.65L346.531 212.546L346.766 213.32ZM345.065 212.006L345.906 210.569L346.336 211.935L345.065 212.006Z" fill="#16a34a"/>
<path d="M350.902 212.39C350.055 212.422 349.547 211.974 349.579 211.363C349.625 210.537 350.348 209.997 351.397 209.951C351.703 209.938 352.107 209.938 352.472 210.01L352.615 209.243C352.316 209.191 351.807 209.165 351.475 209.178C349.677 209.275 348.583 210.166 348.511 211.408C348.446 212.507 349.267 213.248 350.928 213.157C351.26 213.138 351.553 213.092 351.957 213.008L352.114 212.169C351.729 212.292 351.417 212.37 350.902 212.39Z" fill="#16a34a"/>
<path d="M366.029 27.4048C357.156 20.8697 340.374 7.64995 322.381 10.3615C313.469 11.8571 307.241 13.5218 300.57 18.3597C301.163 16.8056 306.564 12.0522 306.121 11.0443C305.574 9.78929 258.884 28.6988 259.568 50.9831C257.333 54.1628 256.161 56.5428 256.213 57.5637C256.467 62.4211 288.812 80.5048 285.326 68.8912C281.952 59.1308 280.936 58.0449 284.479 54.8001C290.838 48.9478 302.844 46.9255 331.371 51.2627C344.746 53.298 385.67 49.2599 382.895 33.6017C382.888 33.6017 374.902 33.9398 366.029 27.4048Z" fill="#141938"/>
<path d="M329.553 178.993L324.504 190.983L309.228 178.934L305.658 182.738L325.573 198.812L330.921 184.747L329.553 178.993Z" fill="#13cc17"/>
<path d="M304.238 171.625C304.238 171.625 310.296 179.812 317.886 185.762C316.869 187.979 307.658 193.903 307.658 193.903L297.326 177.4L304.238 171.625Z" fill="#13cc17"/>
<path d="M299.671 209.431C299.358 209.776 299.17 210.218 298.955 210.634C298.74 211.05 298.544 211.479 298.342 211.896L297.15 214.438C296.362 216.135 295.547 217.826 294.701 219.497C294.284 220.336 293.789 221.142 293.319 221.949L292.583 223.152C292.46 223.353 292.329 223.548 292.219 223.756L291.906 224.387C291.059 226.065 290.153 227.716 289.079 229.29C289.58 227.45 290.264 225.688 290.994 223.958C291.385 223.106 291.691 222.202 292.056 221.324C292.42 220.446 292.792 219.582 293.222 218.743C294.101 217.072 295.026 215.427 296.069 213.84C296.59 213.047 297.124 212.26 297.71 211.505C297.997 211.122 298.303 210.758 298.616 210.394C298.922 210.049 299.241 209.665 299.671 209.431Z" fill="#13cc17"/>
<path d="M351.065 199.69C352.153 203.963 352.785 208.319 353.208 212.696C353.612 217.072 353.821 221.487 353.443 225.876C353.3 223.678 353.117 221.5 352.935 219.315L352.303 212.78L351.625 206.245C351.41 204.073 351.228 201.888 351.065 199.69Z" fill="#13cc17"/>
</g>
<defs fill="#000000">
<linearGradient id="paint0_linear_2603_4323" x1="329.924" y1="78.9946" x2="343.669" y2="117.662" gradientUnits="userSpaceOnUse" fill="#000000">
<stop stop-color="#FFBEAF" fill="#000000"/>
<stop offset="1" stop-color="#E3747B" fill="#000000"/>
</linearGradient>
</defs>
</svg>