<svg xmlns="http://www.w3.org/2000/svg" width="92" height="16" viewBox="0 0 92 16" fill="none">
  <path d="M52.3086 0C51.4674 0 50.8366 0.252366 50.1531 1.21136L41.6366 12.3155L38.3771 1.46372C38.0091 0.353312 37.2731 0 36.5897 0C35.5383 0 35.0126 0.403785 34.4869 1.36278L26.9691 15.7981H31.1749L36.2743 5.85489L39.4286 15.7981H42.9509L50.6263 5.90536L50.5737 15.7981H54.1486L54.096 1.91798C54.096 0.555205 53.2023 0.0504732 52.3086 0Z" fill="#FF1C44"/>
  <path d="M21.9223 2.57413L18.5577 15.7981H22.3954L25.7074 2.57413H21.9223Z" fill="#FF1C44"/>
  <path d="M8.30629 8.58044H5.62514L6.624 4.59306H9.46286C10.9874 4.59306 11.776 5.24921 11.6183 6.51104C11.4606 7.82334 10.1463 8.58044 8.30629 8.58044ZM15.4034 6.35962C15.6137 4.59306 14.5623 2.57413 10.7246 2.57413H3.312L0 15.7981H3.78514L5.04686 10.8517H6.992L10.3566 15.7981H14.5097L10.7246 10.5489C14.0891 9.74132 15.1931 8.07571 15.4034 6.35962Z" fill="#FF1C44"/>
  <path d="M64.032 10.9022L67.3966 6.05678L68.6583 10.9022H64.032ZM69.92 15.7981H73.5474L70.0777 3.63407C69.6046 2.22082 68.7109 1.86751 67.7646 1.96845C67.1863 2.01893 66.5554 2.27129 65.9246 3.07886L56.8297 15.8486H60.5623L62.4023 13.1735H69.184L69.92 15.7981Z" fill="#FF1C44"/>
  <path d="M85.1131 13.3754C82.0114 13.3249 80.2766 11.6593 80.5394 9.53943C80.8549 6.66246 83.5886 4.94637 87.4263 4.94637C88.5303 4.94637 90.0023 5.04732 91.3166 5.35016L92 2.67508C90.9486 2.42271 89.1086 2.22082 87.8994 2.22082C81.3806 2.22082 77.2274 5.09779 76.7017 9.43849C76.2286 13.2744 79.0674 16 85.1131 16C86.3223 16 87.3737 15.8991 88.8983 15.6467L89.6343 12.7697C88.1097 13.1735 86.9531 13.3754 85.1131 13.3754Z" fill="#FF1C44"/>
</svg>